<?xml version="1.0" encoding="UTF-8" standalone="no"?>
<svg
   version="1.2"
   viewBox="0 0 1250 1250"
   width="1250"
   height="1250"
   id="svg62"
   sodipodi:docname="_BoxBoy.svg"
   inkscape:version="1.2.2 (732a01da63, 2022-12-09)"
   inkscape:export-filename="_BoxBoy.png"
   inkscape:export-xdpi="96"
   inkscape:export-ydpi="96"
   xmlns:inkscape="http://www.inkscape.org/namespaces/inkscape"
   xmlns:sodipodi="http://sodipodi.sourceforge.net/DTD/sodipodi-0.dtd"
   xmlns="http://www.w3.org/2000/svg"
   xmlns:svg="http://www.w3.org/2000/svg"
   xmlns:rdf="http://www.w3.org/1999/02/22-rdf-syntax-ns#"
   xmlns:cc="http://creativecommons.org/ns#"
   xmlns:dc="http://purl.org/dc/elements/1.1/">
  <sodipodi:namedview
     id="namedview64"
     pagecolor="#ffffff"
     bordercolor="#111111"
     borderopacity="1"
     inkscape:showpageshadow="0"
     inkscape:pageopacity="0"
     inkscape:pagecheckerboard="1"
     inkscape:deskcolor="#d1d1d1"
     showgrid="false"
     inkscape:window-width="1920"
     inkscape:window-height="992"
     inkscape:window-x="1827"
     inkscape:window-y="1792"
     inkscape:window-maximized="1"
     inkscape:current-layer="svg62" />
  <title
     id="title2">Model_Penguin_Original_Source-svg</title>
  <defs
     id="defs42" />
  <style
     id="style44">
		.s0 { fill: #525252 } 
		.s1 { fill: url(#g1) } 
		.s2 { fill: url(#g2) } 
		.s3 { fill: url(#g3) } 
		.s4 { fill: url(#g4) } 
		.s5 { fill: #666666 } 
		.s6 { fill: url(#g5) } 
		.s7 { fill: url(#g6) } 
		.s8 { fill: url(#g7) } 
	</style>
  <metadata
     id="metadata293">
    <rdf:RDF>
      <cc:Work
         rdf:about="">
        <dc:title>Model_Penguin_Original_Source-svg</dc:title>
      </cc:Work>
    </rdf:RDF>
  </metadata>
  <rect
     style="fill:#cccccc"
     id="rect650"
     width="900.68439"
     height="843.19391"
     x="151.17871"
     y="187.37642"
     inkscape:label="Body"
     transform="matrix(1.1102668,0,0,1.1859668,-42.848704,-97.222212)" />
  <rect
     style="fill:#808080"
     id="Mouth"
     width="303.67047"
     height="129.7085"
     x="816.40051"
     y="657.69836"
     transform="matrix(0.82326082,0,0,1.1564393,202.88944,-240.58824)"
     inkscape:label="Mouth"
     ry="64.854248" />
  <path
     style="fill:#808080"
     id="Nose"
     transform="matrix(0.96369944,0,0,0.9101606,40.882336,-106.3889)"
     inkscape:label="Nose"
     sodipodi:type="arc"
     sodipodi:cx="1070.4766"
     sodipodi:cy="592.08112"
     sodipodi:rx="25.089188"
     sodipodi:ry="36.829967"
     sodipodi:start="0.27120257"
     sodipodi:end="1.6923953"
     sodipodi:arc-type="slice"
     d="m 1094.6487,601.9475 a 25.089188,36.829967 0 0 1 -27.2154,26.69163 l 3.0433,-36.55801 z" />
  <ellipse
     style="fill:#808080"
     id="Eye"
     cx="998.96899"
     cy="363.3974"
     rx="50.84573"
     ry="49.350266"
     transform="matrix(1.4750501,0,0,1.0131658,-463.52932,-68.181816)"
     inkscape:label="Eye" />
  <rect
     style="fill:#808080"
     id="Brow"
     width="125.61886"
     height="26.918327"
     x="918.21405"
     y="248.2468"
     transform="matrix(1.1348865,0.19052091,-0.27627452,0.78262595,-26.047618,-164.22336)"
     inkscape:label="Brow"
     ry="10.912304" />
  <g
     id="Sword"
     inkscape:label="Sword"
     transform="matrix(1.4959807,0.15029347,-0.13644999,1.4351648,-171.30499,-333.74293)">
    <rect
       style="fill:#e6e6e6"
       id="Blade"
       width="303.67047"
       height="129.7085"
       x="816.40051"
       y="657.69836"
       transform="matrix(0.13679693,-0.37389621,0.07731429,0.28240968,495.68468,905.46383)"
       inkscape:label="Blade"
       ry="13.806005"
       inkscape:transform-center-x="-15.638018"
       inkscape:transform-center-y="-56.252032" />
    <rect
       style="fill:#666666;fill-opacity:1"
       id="Guard"
       width="303.67047"
       height="129.7085"
       x="816.40051"
       y="657.69836"
       transform="matrix(0.09047813,0.03985599,-0.03488178,0.09942997,605.09976,681.56662)"
       inkscape:label="Guard" />
    <rect
       style="fill:#666666;fill-opacity:1"
       id="Hilt"
       width="303.67047"
       height="129.7085"
       x="816.40051"
       y="657.69836"
       transform="matrix(-0.070076,0.17680535,-0.14432353,-0.0851718,831.45731,705.22088)"
       inkscape:label="Hilt" />
  </g>
  <g
     id="Joint"
     inkscape:label="Joint"
     transform="matrix(1.2486603,0,0,1.609267,-113.28528,-372.44685)">
    <rect
       style="fill:#808080"
       id="Arm"
       width="303.67047"
       height="129.7085"
       x="816.40051"
       y="657.69836"
       transform="matrix(-0.66426614,-0.31360485,0.38039742,-0.23368484,931.35765,1265.0224)"
       inkscape:label="Arm"
       ry="64.854248" />
    <rect
       style="fill:#808080"
       id="Shoulder"
       width="303.67047"
       height="129.7085"
       x="816.40051"
       y="657.69836"
       transform="matrix(0.49902558,-0.5010404,0.42512277,0.37017548,-251.9269,911.91914)"
       inkscape:label="Shoulder"
       ry="64.854248"
       rx="105.63608" />
  </g>
</svg>
