<?xml version="1.0" encoding="UTF-8" standalone="no"?>
<svg
   version="1.2"
   viewBox="0 0 1200 1200"
   width="1200"
   height="1200"
   id="svg62"
   sodipodi:docname="_Model_Penguin_Source.svg"
   inkscape:version="1.2.2 (732a01da63, 2022-12-09)"
   xmlns:inkscape="http://www.inkscape.org/namespaces/inkscape"
   xmlns:sodipodi="http://sodipodi.sourceforge.net/DTD/sodipodi-0.dtd"
   xmlns:xlink="http://www.w3.org/1999/xlink"
   xmlns="http://www.w3.org/2000/svg"
   xmlns:svg="http://www.w3.org/2000/svg"
   xmlns:rdf="http://www.w3.org/1999/02/22-rdf-syntax-ns#"
   xmlns:cc="http://creativecommons.org/ns#"
   xmlns:dc="http://purl.org/dc/elements/1.1/">
  <sodipodi:namedview
     id="namedview64"
     pagecolor="#ffffff"
     bordercolor="#111111"
     borderopacity="1"
     inkscape:showpageshadow="0"
     inkscape:pageopacity="0"
     inkscape:pagecheckerboard="1"
     inkscape:deskcolor="#d1d1d1"
     showgrid="false"
     inkscape:window-width="1920"
     inkscape:window-height="992"
     inkscape:window-x="-8"
     inkscape:window-y="-8"
     inkscape:window-maximized="1"
     inkscape:current-layer="svg62" />
  <title
     id="title2">Model_Penguin_Original_Source-svg</title>
  <defs
     id="defs42">
    <linearGradient
       id="linearGradient1082"
       x1="451.79999"
       y1="164.60001"
       x2="457.89999"
       y2="122.3"
       gradientUnits="userSpaceOnUse"
       spreadMethod="pad">
      <stop
         offset="0"
         stop-color="#8c8c8c"
         id="stop1078" />
      <stop
         offset="1"
         stop-color="#bebebe"
         id="stop1080" />
    </linearGradient>
    <radialGradient
       id="g1"
       cx="158.89999"
       cy="1118.1"
       r="194.7"
       gradientUnits="userSpaceOnUse">
      <stop
         offset="0"
         stop-color="#414141"
         id="stop4" />
      <stop
         offset="1"
         stop-color="#5e5e5e"
         id="stop6" />
    </radialGradient>
    <linearGradient
       id="g2"
       x1="451.79999"
       y1="164.60001"
       x2="457.89999"
       y2="122.3"
       gradientUnits="userSpaceOnUse"
       xlink:href="#linearGradient1082">
      <stop
         offset="0"
         stop-color="#8c8c8c"
         id="stop9" />
      <stop
         offset="1"
         stop-color="#bebebe"
         id="stop11" />
    </linearGradient>
    <linearGradient
       id="g3"
       x1="467.10001"
       y1="45.900002"
       x2="483.79999"
       y2="91.699997"
       gradientUnits="userSpaceOnUse">
      <stop
         offset="0"
         stop-color="#787878"
         id="stop14" />
      <stop
         offset="1"
         stop-color="#aaaaaa"
         id="stop16" />
    </linearGradient>
    <radialGradient
       id="g4"
       cx="246.8"
       cy="1118.1"
       r="194.60001"
       gradientUnits="userSpaceOnUse">
      <stop
         offset="0"
         stop-color="#414141"
         id="stop19" />
      <stop
         offset="1"
         stop-color="#5f5f5f"
         id="stop21" />
    </radialGradient>
    <radialGradient
       id="g5"
       cx="343.89999"
       cy="86.900002"
       r="26.1"
       gradientUnits="userSpaceOnUse">
      <stop
         offset="0"
         stop-color="#ffffff"
         id="stop24" />
      <stop
         offset="1"
         stop-color="#969696"
         id="stop26" />
    </radialGradient>
    <radialGradient
       id="g6"
       cx="343.89999"
       cy="86.5"
       r="14.1"
       gradientUnits="userSpaceOnUse">
      <stop
         offset="0"
         stop-color="#19191a"
         id="stop29" />
      <stop
         offset="1"
         stop-color="#4b4b4b"
         id="stop31" />
    </radialGradient>
    <clipPath
       clipPathUnits="userSpaceOnUse"
       id="cp1">
      <path
         d="m 181.09,250.08 c -25.66,38.95 -51.93,71.01 -68.81,111.11 -30.71,72.92 -53.51,151.35 -56.88,230.24 -4.69,116.1 13.78,254.56 8.02,358.16 -24.02,148.51 -26.24,149.16 64.37,133.04 23.31,-4.85 51.36,-4.5 79.93,-3.66 35.03,1.01 94.73,1.11 119.86,-9.51 92.7,-39.14 93.93,-283.24 104.28,-428.44 9.37,-131.64 2.39,-228.74 -33.62,-390.94 -42.17,3.69 -163.56,2.6 -217.15,0 z"
         id="path34" />
    </clipPath>
    <linearGradient
       id="g7"
       x1="150"
       y1="268.5"
       x2="513"
       y2="290.39999"
       gradientUnits="userSpaceOnUse">
      <stop
         offset="0"
         stop-color="#fafafa"
         id="stop37" />
      <stop
         offset="1"
         stop-color="#8c8c8c"
         id="stop39" />
    </linearGradient>
  </defs>
  <style
     id="style44">
		.s0 { fill: #525252 } 
		.s1 { fill: url(#g1) } 
		.s2 { fill: url(#g2) } 
		.s3 { fill: url(#g3) } 
		.s4 { fill: url(#g4) } 
		.s5 { fill: #666666 } 
		.s6 { fill: url(#g5) } 
		.s7 { fill: url(#g6) } 
		.s8 { fill: url(#g7) } 
	</style>
  <path
     id="Flipper_Back"
     class="s0"
     d="m 216.3,710.4 c 2.1,28.8 2.8,57.8 10.3,85.9 3,11.5 5.9,23.8 13.9,33.5 4.7,5.7 10.8,13.5 18.7,13.2 8.9,-0.3 14.9,-9.1 19,-15.9 17.7,-30.2 13,-67.3 17,-101.1 3.2,-26 1.2,-52.6 5.9,-78.4 4.6,-26.4 14.7,-51.7 22,-77.6 10.8,-38.5 27.7,-75.9 32.2,-115.5 5.2,-31.3 13.2,-61.6 -0.9,-70.8 -20,-4.7 -41.7,5.9 -61.5,12.6 -15.4,4.9 -23.3,11.3 -30.8,20.6 -12,14.6 -15.5,33.5 -20,51 -4,16.1 -3.4,32.8 -6.2,49 -2.4,15.1 -6.1,30 -8.9,44.9 -4.5,23 -10.9,45.6 -12.8,68.9 -2.1,26.4 0.2,53.2 2.1,79.7 z"
     transform="matrix(0.99993675,0,0,1.0000036,280.03479,5.5865163)"
     inkscape:label="Flipper_Back" />
  <path
     id="Foot_Back"
     class="s1"
     d="m 125.3,1089.5 c 3.5,19.2 8.2,50.6 15.7,56.8 7.1,5.9 33.8,3.6 51.3,1.3 25.9,-2.5 53.9,-6.4 74.5,-7.1 20.3,-0.7 39.8,6.9 59.9,8.3 14.1,0.9 27.7,-0.8 42.4,-0.2 35.8,6.3 -17.1,-47.4 -24.6,-52.1 -24.1,-20.4 -49.2,-18.2 -75.7,-14.4 -20.7,3 -55.3,5 -72.1,-7.3 -7.7,-5.7 -10.7,-17.8 -13.6,-28.6 -10.4,-39.1 17.7,-90.3 6.5,-123.6 -9.7,-24.6 -21.9,-22.2 -37.7,-19.7 -23.4,3.6 -36.4,13.3 -44.7,30.2 -11.5,23.6 0,53.5 2.8,80 3,25.8 11.6,55.5 15.3,76.4 z"
     style="fill:url(#g1)"
     transform="matrix(0.99993675,0,0,1.0000036,280.03479,5.5865163)"
     inkscape:label="Foot_Back" />
  <path
     id="Beak_Lower"
     style="display:inline;fill:url(#g2)"
     class="s2"
     d="m 495.5278,117.08884 c -56.48214,0.038 -103.25598,2.33097 -155.54109,0.91222 7.8277,32.9041 12.783,43.73312 42.10228,57.8571 0.45123,-3.60491 1.3102,-7.2039 2.81072,-10.75777 23.19994,-15.19997 46.70068,-21.39994 71.50062,-23.99991 26.49991,-2.9 56.20061,-6.09957 76.60055,-12.59957 5.79997,-1.9 12.19912,-6.10086 16.99912,-9.20086 l -0.0996,-1.2991 c -18.7128,-0.71457 -36.74321,-0.94126 -54.37258,-0.91211 z"
     transform="matrix(0.99993675,0,0,1.0000036,280.03479,5.5865163)"
     sodipodi:nodetypes="ccccccccsc"
     inkscape:label="Beak_Lower" />
  <path
     id="Beak_Upper"
     style="fill:url(#g3)"
     class="s3"
     d="m 371.79927,75.200322 c -18.19872,14.54742 -28.80035,32.747588 -31.81256,44.099728 70.03055,0.10298 145.84647,-0.38387 210.01329,0 0,0 3.8e-4,-1.29895 -0.0996,-1.29895 -5.09999,-9.29999 -35.70074,-18.600324 -42.50073,-19.900322 -20.69998,-3.799997 -41.19934,2e-6 -63.19931,-0.999997 -19.29998,-0.899999 -42.49994,-6.000606 -60.49992,-13.600598 -0.0676,0.03439 -11.84771,-8.340859 -11.90115,-8.299714 z"
     transform="matrix(0.99993675,0,0,1.0000036,280.03479,5.5865163)"
     sodipodi:nodetypes="ccccccccc"
     inkscape:label="Beak_Upper" />
  <path
     id="Foot_Front"
     class="s4"
     d="m 213.3,1089.5 c 3.4,19.2 8.1,50.6 15.6,56.8 7.1,5.9 33.9,3.6 51.3,1.3 26,-2.5 53.9,-6.4 74.5,-7.1 20.3,-0.7 39.8,6.9 59.9,8.3 14.1,0.9 27.7,-0.8 42.3,-0.2 35.9,6.3 -17,-47.4 -24.6,-52.1 -24,-20.4 -49.1,-18.2 -75.6,-14.4 -20.5,3 -55.3,5 -72.1,-7.3 -7.7,-5.7 -10.7,-17.8 -13.6,-28.6 -10.3,-39.1 17.8,-90.3 6.6,-123.6 -9.8,-24.6 -22,-22.2 -37.8,-19.7 -23.4,3.6 -36.4,13.3 -44.6,30.2 -11.5,23.6 -0.3,53.5 2.8,80 3.1,25.8 11.5,55.5 15.3,76.4 z"
     style="fill:url(#g4)"
     transform="matrix(0.99993675,0,0,1.0000036,280.03479,5.5865163)"
     inkscape:label="Foot_Front" />
  <path
     id="Head_Base"
     style="display:inline;fill:#666666"
     class="s5"
     inkscape:label="Head_Base"
     d="M 313.64684 50.059774 C 281.67378 50.583453 261.32402 61.950345 243.69905 80.700288 C 215.09914 110.9002 218.79966 159.8992 204.39969 198.89908 C 201.36738 207.64084 198.33324 216.21532 195.09246 224.41266 C 191.47811 233.55499 187.6069 242.24866 183.19913 250.60007 C 176.24071 261.13248 169.12802 270.70232 162.10991 280.53746 L 404.87526 280.53746 C 403.24447 272.7578 401.54203 264.82774 399.76557 256.73676 C 399.28248 254.53655 398.79465 252.32453 398.30063 250.10007 C 395.66206 241.70004 392.2249 232.8537 389.3528 224.41266 C 387.18346 218.03708 385.33645 211.95982 384.39936 206.10023 C 382.92586 196.15413 380.82581 185.94714 382.08867 175.85815 C 382.5399 172.25322 383.39887 168.65422 384.89939 165.10038 C 379.89804 125.94027 378.3946 116.89744 383.7001 83.50106 C 383.6486 83.746639 375.59895 77.800302 371.79895 75.200308 C 355.79901 63.900344 333.99993 50.500789 320.19999 50.100789 C 317.96249 50.038289 315.77838 50.024864 313.64684 50.059774 z "
     transform="matrix(0.99993675,0,0,1.0000036,280.03511,5.5865304)" />
  <g
     id="Eye_Front"
     transform="matrix(0.99993675,0,0,1.0000036,280.03479,5.5865163)"
     style="display:inline"
     inkscape:label="Eye_Front">
    <path
       id="Eye_Base"
       class="s6"
       d="m 340.3,69.3 c -3.8,-0.3 -10.3,4.9 -13.5,8.3 -3.1,3.3 -4.8,6.5 -4.8,9.3 0.1,2.7 2,6 5.6,10.2 3.6,4.1 10.7,10.7 15.1,10.8 4.3,0.2 11.8,-6 16.1,-10 4.4,-3.9 7.6,-7.6 7.2,-9.7 -0.3,-2.2 -4.5,-5.3 -9.3,-9 -4.7,-3.6 -12.5,-9.7 -16.4,-9.9 z"
       style="fill:url(#g5)"
       inkscape:label="Eye_Base" />
    <path
       id="Eye_Cornea"
       class="s7"
       d="m 341.8,77.8 c -2.7,-0.1 -6.8,2.4 -8.9,4.2 -2.1,1.7 -3.2,3.4 -3.1,4.8 0,1.3 1.2,2.9 3.5,5.1 2.5,2.1 7.1,5.6 9.8,5.7 2.7,0 7.8,-3.3 10.3,-5.3 2.5,-2 3.8,-4 3.7,-5 -0.2,-1 -2.2,-2.7 -4.9,-4.5 -2.8,-1.9 -7.7,-4.9 -10.4,-5 z"
       style="fill:url(#g6)"
       inkscape:label="Eye_Cornea" />
  </g>
  <path
     id="Torso_Base"
     style="display:inline;fill:#666666"
     class="s5"
     inkscape:label="Torso_Base"
     d="M 195.09246 224.41266 C 191.47811 233.55499 187.6069 242.24866 183.19913 250.60007 C 176.24071 261.13248 169.12802 270.70232 162.10991 280.53746 C 143.20766 307.02692 124.98892 332.53872 112.30012 362.00006 C 81.200207 434.79982 58.799641 513.40025 55.49965 592.30001 C 50.699665 708.39965 69.49937 846.90022 63.699388 950.49989 C 39.69946 1098.9995 39.299402 1099.099 127.79915 1082.599 C 151.09906 1077.799 179.19882 1078.0998 207.69873 1078.8998 C 242.79861 1079.8998 302.29975 1080.0996 327.39966 1069.3999 C 420.09939 1030.2999 421.59887 786.19863 431.79884 640.99905 C 440.59546 517.75271 435.11799 424.80794 404.87526 280.53746 C 403.24447 272.7578 401.54203 264.82774 399.76557 256.73676 C 399.28248 254.53655 398.79465 252.32453 398.30063 250.10007 C 395.66206 241.70004 392.2249 232.8537 389.3528 224.41266 L 195.09246 224.41266 z "
     transform="matrix(0.99993675,0,0,1.0000036,280.03511,5.5865304)" />
  <g
     id="Clip-Path: Clip-Path:_Clipping-Groups"
     clip-path="url(#cp1)"
     transform="matrix(0.99993675,0,0,1.0000036,280.03479,5.5865163)">
    <g
       id="Clip-Path:_Clipping-Groups">
      <g
         id="Clipping-Groups">
        <g
           id="Torso-Clip">
          <path
             id="Belly-Gradient"
             class="s8"
             d="m 437.3,248 c -39.7,10.3 -75.5,18.5 -103.7,43 -28.4,24.7 -44,62 -56.8,97.2 -35.5,97.7 -38.1,204.2 -51.8,307 -13.2,100.3 -35.4,201 -28.9,301.9 3.7,58 12.4,129.4 38.8,169.9 H 596.4 V 250.1 c 0,0 -159,-2.2 -159.1,-2.1 z"
             style="fill:url(#g7)" />
        </g>
      </g>
    </g>
  </g>
  <path
     id="Flipper_Front"
     class="s0"
     d="m 82.2,708.1 c 2.3,31.9 3.1,64.2 11.4,95.4 3.3,12.8 6.6,26.5 15.5,37.3 5.1,6.3 12,14.9 20.9,14.6 9.8,-0.3 16.5,-10.1 20.9,-17.7 19.8,-33.6 14.5,-74.7 19,-112.3 3.5,-28.9 1.3,-58.4 6.5,-87.1 5.2,-29.4 16.4,-57.5 24.5,-86.3 12.1,-42.7 30.7,-84.3 35.7,-128.3 5.7,-34.6 14.7,-68.4 -1,-78.6 -22.1,-5.2 -46.3,6.5 -68.2,13.9 -17.3,5.5 -25.9,12.7 -34.3,23 -13.4,16.2 -17.2,37.2 -22.2,56.7 -4.5,17.8 -3.9,36.4 -6.8,54.5 -2.8,16.6 -6.9,33.2 -10.1,49.9 -4.9,25.4 -12.1,50.6 -14.1,76.4 -2.4,29.5 0.2,59.1 2.3,88.6 z"
     transform="matrix(0.99993675,0,0,1.0000036,280.03479,5.5865163)"
     inkscape:label="Flipper_Front" />
  <metadata
     id="metadata293">
    <rdf:RDF>
      <cc:Work
         rdf:about="">
        <dc:title>Model_Penguin_Original_Source-svg</dc:title>
      </cc:Work>
    </rdf:RDF>
  </metadata>
</svg>
