<?xml version="1.0" encoding="UTF-8" standalone="no"?>
<!-- Created with Inkscape (http://www.inkscape.org/) -->

<svg
   version="1.2"
   viewBox="0 0 504 1104"
   width="504"
   height="1104"
   id="svg264"
   sodipodi:docname="Model_Penguin_Original_Source.svg"
   inkscape:version="1.2.2 (732a01da63, 2022-12-09)"
   xmlns:inkscape="http://www.inkscape.org/namespaces/inkscape"
   xmlns:sodipodi="http://sodipodi.sourceforge.net/DTD/sodipodi-0.dtd"
   xmlns="http://www.w3.org/2000/svg"
   xmlns:svg="http://www.w3.org/2000/svg"
   xmlns:rdf="http://www.w3.org/1999/02/22-rdf-syntax-ns#"
   xmlns:cc="http://creativecommons.org/ns#"
   xmlns:dc="http://purl.org/dc/elements/1.1/">
  <sodipodi:namedview
     id="namedview266"
     pagecolor="#ffffff"
     bordercolor="#111111"
     borderopacity="1"
     inkscape:showpageshadow="0"
     inkscape:pageopacity="0"
     inkscape:pagecheckerboard="1"
     inkscape:deskcolor="#d1d1d1"
     showgrid="false"
     inkscape:window-width="1920"
     inkscape:window-height="992"
     inkscape:window-x="-8"
     inkscape:window-y="-8"
     inkscape:window-maximized="1"
     inkscape:current-layer="svg264" />
  <title
     id="title196">Model_Penguin_Original_Source-svg</title>
  <defs
     id="defs236">
    <radialGradient
       id="g1"
       cx="112.2"
       cy="1070.3"
       r="193.1"
       gradientUnits="userSpaceOnUse">
      <stop
         offset="0"
         stop-color="#414141"
         id="stop198" />
      <stop
         offset="1"
         stop-color="#5e5e5e"
         id="stop200" />
    </radialGradient>
    <linearGradient
       id="g2"
       x1="402.7"
       y1="114.9"
       x2="408.8"
       y2="72.5"
       gradientUnits="userSpaceOnUse">
      <stop
         offset="0"
         stop-color="#8c8c8c"
         id="stop203" />
      <stop
         offset="1"
         stop-color="#bebebe"
         id="stop205" />
    </linearGradient>
    <linearGradient
       id="g3"
       x1="417.9"
       y1="-4.1"
       x2="434.4"
       y2="41.8"
       gradientUnits="userSpaceOnUse">
      <stop
         offset="0"
         stop-color="#787878"
         id="stop208" />
      <stop
         offset="1"
         stop-color="#aaaaaa"
         id="stop210" />
    </linearGradient>
    <radialGradient
       id="g4"
       cx="199.4"
       cy="1070.3"
       r="193"
       gradientUnits="userSpaceOnUse">
      <stop
         offset="0"
         stop-color="#414141"
         id="stop213" />
      <stop
         offset="1"
         stop-color="#5f5f5f"
         id="stop215" />
    </radialGradient>
    <radialGradient
       id="g5"
       cx="295.7"
       cy="37"
       r="25.9"
       gradientUnits="userSpaceOnUse">
      <stop
         offset="0"
         stop-color="#ffffff"
         id="stop218" />
      <stop
         offset="1"
         stop-color="#969696"
         id="stop220" />
    </radialGradient>
    <radialGradient
       id="g6"
       cx="295.7"
       cy="36.6"
       r="14"
       gradientUnits="userSpaceOnUse">
      <stop
         offset="0"
         stop-color="#19191a"
         id="stop223" />
      <stop
         offset="1"
         stop-color="#4b4b4b"
         id="stop225" />
    </radialGradient>
    <clipPath
       clipPathUnits="userSpaceOnUse"
       id="cp1">
      <path
         d="m134.2 200.52c-25.45 39.03-51.51 71.15-68.25 111.33-30.46 73.07-53.07 151.65-56.41 230.7-4.66 116.33 13.66 255.07 7.95 358.88-23.82 148.8-26.03 149.45 63.84 133.3 23.12-4.86 50.95-4.51 79.28-3.67 34.75 1.02 93.96 1.12 118.88-9.52 91.95-39.22 93.17-283.81 103.43-429.3 9.3-131.9 2.37-229.2-33.34-391.72-41.83 3.7-162.23 2.61-215.38 0z"
         id="path228" />
    </clipPath>
    <linearGradient
       id="g7"
       x1="103.4"
       y1="219"
       x2="463.4"
       y2="240.9"
       gradientUnits="userSpaceOnUse">
      <stop
         offset="0"
         stop-color="#fafafa"
         id="stop231" />
      <stop
         offset="1"
         stop-color="#8c8c8c"
         id="stop233" />
    </linearGradient>
  </defs>
  <style
     id="style238">
		.s0 { fill: #525252 } 
		.s1 { fill: url(#g1) } 
		.s2 { fill: url(#g2) } 
		.s3 { fill: url(#g3) } 
		.s4 { fill: url(#g4) } 
		.s5 { fill: #666666 } 
		.s6 { fill: url(#g5) } 
		.s7 { fill: url(#g6) } 
		.s8 { fill: url(#g7) } 
	</style>
  <path
     id="Flipper_Back"
     class="s0"
     d="m169.1 661.8c2.1 28.8 2.8 57.9 10.2 86 3 11.6 5.9 23.9 13.8 33.6 4.7 5.7 10.7 13.5 18.6 13.2 8.8-0.3 14.8-9.1 18.8-15.9 17.6-30.3 12.9-67.4 16.9-101.3 3.2-26.1 1.2-52.7 5.8-78.6 4.6-26.4 14.6-51.8 21.9-77.7 10.7-38.6 27.4-76.1 31.9-115.8 5.1-31.3 13.1-61.7-0.9-70.9-19.8-4.7-41.4 5.9-61 12.6-15.3 4.9-23.1 11.4-30.6 20.7-11.9 14.6-15.3 33.5-19.8 51.1-4 16.1-3.4 32.8-6.1 49.1-2.4 15.1-6.1 30-8.9 45-4.4 23-10.8 45.7-12.7 69-2 26.5 0.2 53.3 2.1 79.9z"
     inkscape:label="Flipper_Back" />
  <path
     id="Foot_Back"
     class="s1"
     d="m78.9 1041.6c3.4 19.3 8.1 50.7 15.5 56.9 7.1 5.9 33.6 3.6 50.9 1.3 25.7-2.5 53.5-6.4 73.9-7.1 20.1-0.7 39.5 6.9 59.4 8.3 14 0.9 27.5-0.8 42.1-0.2 35.5 6.3-17-47.5-24.4-52.2-23.9-20.4-48.8-18.2-75.1-14.4-20.5 3-54.9 5-71.5-7.3-7.7-5.7-10.6-17.8-13.5-28.7-10.3-39.1 17.5-90.5 6.4-123.8-9.6-24.7-21.7-22.3-37.4-19.8-23.2 3.7-36.1 13.4-44.3 30.3-11.4 23.7 0 53.6 2.8 80.2 3 25.8 11.5 55.6 15.2 76.5z"
     inkscape:label="Foot_Back" />
  <path
     id="Beak_Lower"
     class="s2"
     d="m272.1 64.8c37 29.7 36.9 30.1 64.2 50.6 23.1-15.3 46.4-21.5 71-24.1 26.2-2.9 55.7-6.1 75.9-12.6 5.8-1.9 12.1-6.1 16.9-9.2v-1.3c-69.3-1.2-161.7-3.4-228-3.4z"
     inkscape:label="Beak_Lower" />
  <path
     id="Beak_Upper"
     class="s3"
     d="m272.1 66.7c77.5 1.6 158.8 2.1 228 2.8 0 0 0-1.4-0.1-1.4-5.1-9.3-35.4-18.6-42.2-19.9-20.5-3.8-40.8 0-62.6-1-19.2-0.9-42.2-6-60-13.6-27.9 14.7-45.6 21.6-63.1 33.1z"
     inkscape:label="Beak_Upper" />
  <path
     id="Foot_Front"
     class="s4"
     d="m166.1 1041.6c3.4 19.3 8.1 50.7 15.5 56.9 7.1 5.9 33.6 3.6 50.9 1.3 25.8-2.5 53.5-6.4 73.9-7.1 20.1-0.7 39.5 6.9 59.4 8.3 14 0.9 27.5-0.8 42-0.2 35.6 6.3-16.9-47.5-24.4-52.2-23.8-20.4-48.7-18.2-75-14.4-20.4 3-54.9 5-71.5-7.3-7.7-5.7-10.6-17.8-13.5-28.7-10.2-39.1 17.6-90.5 6.5-123.8-9.7-24.7-21.8-22.3-37.5-19.8-23.2 3.7-36.1 13.4-44.2 30.3-11.4 23.7-0.3 53.6 2.8 80.2 3 25.8 11.4 55.6 15.1 76.5z"
     inkscape:label="Foot_Front" />
  <path
     id="Head_Base"
     class="s5"
     d="m136.3 201c0 0 60.9 64.2 110.1 64.6 44.5-0.4 103.2-65.1 103.2-65.1-4.8-15.7-11.5-28.8-13.7-44-2-13.6-5.2-27.6 0.4-41.1-4.2-28.6-3.6-57-1.1-81.8-4.4-2.7-8.1-5.7-11.8-8.3-15.9-11.3-37.5-24.8-51.2-25.2-35.5-1-57.3 10.7-75.9 30.7-28.4 30.3-24.7 79.4-39 118.4-6.5 17.5-13.2 36.8-21 51.8z"
     inkscape:label="Head_Base" />
  <g
     id="Eye_Front"
     inkscape:label="Eye_Front">
    <path
       id="Eye_Base"
       class="s6"
       d="m292.1 19.4c-3.8-0.3-10.2 4.9-13.4 8.3-3.1 3.3-4.7 6.5-4.7 9.3 0.1 2.7 1.9 6 5.5 10.2 3.6 4.1 10.6 10.8 15 10.9 4.3 0.2 11.7-6.1 16-10.1 4.3-3.9 7.5-7.6 7.1-9.7-0.3-2.2-4.5-5.3-9.2-9-4.7-3.6-12.4-9.7-16.3-9.9z"
       inkscape:label="Eye_Base" />
    <path
       id="Eye_Cornea"
       class="s7"
       d="m293.6 27.9c-2.7-0.1-6.7 2.4-8.8 4.2-2.1 1.7-3.2 3.4-3.1 4.8 0 1.3 1.2 2.9 3.5 5.1 2.4 2.1 7 5.6 9.7 5.7 2.7 0 7.7-3.3 10.2-5.3 2.5-2 3.8-4 3.7-5-0.2-1-2.2-2.7-4.9-4.5-2.8-1.9-7.6-4.9-10.3-5z"
       inkscape:label="Eye_Cornea" />
  </g>
  <path
     id="Torso"
     class="s5"
     d="m136.3 201c-25.5 39-53.1 71.2-70.3 111.7-30.9 72.9-53.1 151.7-56.4 230.7-4.7 116.4 13.9 255.1 8.2 358.9-23.8 148.8-24.2 148.9 63.5 132.4 23.2-4.8 51-4.5 79.3-3.7 34.8 1 93.8 1.2 118.7-9.5 92-39.2 93.4-283.8 103.6-429.3 9.3-131.9 2.4-229.2-33.3-391.7-41.9 3.7-160.2 3.1-213.3 0.5z"
     inkscape:label="Torso" />
  <g
     id="Clipping-Groups"
     clip-path="url(#cp1)"
     inkscape:label="Clipping-Groups">
    <g
       id="Torso-Clip"
       inkscape:label="Torso-Clip">
      <path
         id="Belly-Gradient"
         class="s8"
         d="m388.3 198.4c-39.4 10.4-74.9 18.6-102.8 43.1-28.2 24.8-43.7 62.1-56.4 97.4-35.2 97.9-37.8 204.6-51.3 307.6-13.1 100.5-35.2 201.4-28.7 302.5 3.7 58.1 12.3 129.7 38.5 170.3h358.5v-918.8c0 0-157.7-2.2-157.8-2.1z"
         inkscape:label="Belly-Gradient" />
    </g>
  </g>
  <path
     id="Flipper_Front"
     class="s0"
     d="m36.1 665.5c2.3 31.9 3.1 64.3 11.3 95.6 3.3 12.8 6.6 26.5 15.4 37.3 5.1 6.3 11.9 15 20.7 14.7 9.7-0.3 16.4-10.2 20.8-17.8 19.6-33.6 14.3-74.8 18.8-112.5 3.5-29 1.3-58.5 6.4-87.3 5.2-29.4 16.3-57.6 24.3-86.4 12-42.8 30.5-84.5 35.5-128.6 5.6-34.7 14.5-68.5-1-78.8-22-5.2-46 6.6-67.7 14-17.1 5.5-25.7 12.7-34 23-13.3 16.2-17.1 37.3-22 56.8-4.5 17.9-3.9 36.5-6.8 54.6-2.7 16.7-6.8 33.3-10 50-4.8 25.5-12 50.7-14 76.6-2.3 29.5 0.2 59.2 2.3 88.8z"
     inkscape:label="Flipper_Front" />
  <metadata
     id="metadata1300">
    <rdf:RDF>
      <cc:Work
         rdf:about="">
        <dc:title>Model_Penguin_Original_Source-svg</dc:title>
      </cc:Work>
    </rdf:RDF>
  </metadata>
</svg>
