<?xml version="1.0" encoding="UTF-8" standalone="no"?>
<svg
   version="1.2"
   viewBox="0 0 1700.8054 3779.5361"
   width="1700.8054"
   height="3779.5361"
   id="svg33"
   sodipodi:docname="Model_Penguin_Original_Source.svg"
   inkscape:version="1.2.2 (b0a8486541, 2022-12-01)"
   xmlns:inkscape="http://www.inkscape.org/namespaces/inkscape"
   xmlns:sodipodi="http://sodipodi.sourceforge.net/DTD/sodipodi-0.dtd"
   xmlns:xlink="http://www.w3.org/1999/xlink"
   xmlns="http://www.w3.org/2000/svg"
   xmlns:svg="http://www.w3.org/2000/svg">
  <sodipodi:namedview
     id="namedview35"
     pagecolor="#ffffff"
     bordercolor="#111111"
     borderopacity="1"
     inkscape:showpageshadow="0"
     inkscape:pageopacity="0"
     inkscape:pagecheckerboard="1"
     inkscape:deskcolor="#d1d1d1"
     showgrid="false"
     inkscape:zoom="0.26838449"
     inkscape:cx="-61.478962"
     inkscape:cy="1201.6342"
     inkscape:window-width="1920"
     inkscape:window-height="1002"
     inkscape:window-x="-8"
     inkscape:window-y="-8"
     inkscape:window-maximized="1"
     inkscape:current-layer="svg33"
     inkscape:document-units="px" />
  <defs
     id="defs11">
    <radialGradient
       r="28.390963"
       fy="414.26337"
       fx="957.88153"
       cy="414.26337"
       cx="957.88153"
       gradientTransform="matrix(2.4555395,0.01583465,-0.005867,1.6880554,-2252.7569,-411.29941)"
       gradientUnits="userSpaceOnUse"
       id="radialGradient1100"
       xlink:href="#linearGradient1195"
       inkscape:collect="always" />
    <linearGradient
       inkscape:collect="always"
       id="linearGradient1195">
      <stop
         style="stop-color:#414141;stop-opacity:1;"
         offset="0"
         id="stop1191" />
      <stop
         style="stop-color:#5e5e5e;stop-opacity:1"
         offset="1"
         id="stop1193" />
    </linearGradient>
    <linearGradient
       y2="74.009239"
       x2="500.79736"
       y1="126.85194"
       x1="500.49084"
       gradientTransform="matrix(0.29252672,0,0,0.26661906,2000.7334,161.57677)"
       gradientUnits="userSpaceOnUse"
       id="linearGradient1618"
       xlink:href="#linearGradient1411"
       inkscape:collect="always" />
    <linearGradient
       inkscape:collect="always"
       id="linearGradient1411">
      <stop
         style="stop-color:#737373;stop-opacity:1"
         offset="0"
         id="stop1407" />
      <stop
         style="stop-color:#bfbfbf;stop-opacity:1"
         offset="1"
         id="stop1409" />
    </linearGradient>
    <linearGradient
       y2="80.053467"
       x2="505.15372"
       y1="50.551369"
       x1="505.06955"
       gradientTransform="matrix(0.56287861,0,0,0.48287431,27.957799,-142.58079)"
       gradientUnits="userSpaceOnUse"
       id="linearGradient1616"
       xlink:href="#linearGradient1403"
       inkscape:collect="always" />
    <linearGradient
       inkscape:collect="always"
       id="linearGradient1403">
      <stop
         style="stop-color:#cccccc;stop-opacity:1"
         offset="0"
         id="stop1399" />
      <stop
         style="stop-color:#808080;stop-opacity:1"
         offset="1"
         id="stop1401" />
    </linearGradient>
    <radialGradient
       inkscape:collect="always"
       xlink:href="#linearGradient1195"
       id="radialGradient1620"
       gradientUnits="userSpaceOnUse"
       gradientTransform="matrix(2.4550757,0.01583455,-0.00586588,1.6880502,-2219.8,-411.29717)"
       cx="957.88153"
       cy="414.26337"
       fx="957.88153"
       fy="414.26337"
       r="28.390963" />
    <filter
       inkscape:collect="always"
       style="color-interpolation-filters:sRGB"
       id="filter975-3-5-5-8-3-3"
       x="-1.3025163e-05"
       width="1.0000261"
       y="-8.9519112e-06"
       height="1.0000179"
       inkscape:label="filter">
      <feGaussianBlur
         inkscape:collect="always"
         stdDeviation="0.00089215149"
         id="feGaussianBlur977-6-7-8-6-0-2" />
    </filter>
    <linearGradient
       y2="267.96399"
       x2="2781.6362"
       y1="253.28329"
       x1="2528.0066"
       gradientUnits="userSpaceOnUse"
       id="linearGradient1614"
       xlink:href="#linearGradient1211"
       inkscape:collect="always" />
    <linearGradient
       inkscape:collect="always"
       id="linearGradient1211">
      <stop
         style="stop-color:#fafafa;stop-opacity:1"
         offset="0"
         id="stop1207" />
      <stop
         style="stop-color:#8c8c8c;stop-opacity:1"
         offset="1"
         id="stop1209" />
    </linearGradient>
    <filter
       inkscape:label="filter"
       height="1.0000064"
       y="-3.1933694e-06"
       width="1.0000239"
       x="-1.194304e-05"
       id="filter975-3-5-5"
       style="color-interpolation-filters:sRGB"
       inkscape:collect="always">
      <feGaussianBlur
         id="feGaussianBlur977-6-7-8"
         stdDeviation="0.00089215149"
         inkscape:collect="always" />
    </filter>
    <radialGradient
       r="4.9343991"
       fy="148.41327"
       fx="431.3793"
       cy="148.41327"
       cx="431.3793"
       gradientTransform="matrix(0.93603625,0,0,0.93721071,1335.0489,-6.049578)"
       gradientUnits="userSpaceOnUse"
       id="radialGradient1610"
       xlink:href="#linearGradient1358"
       inkscape:collect="always" />
    <linearGradient
       inkscape:collect="always"
       id="linearGradient1358">
      <stop
         style="stop-color:#ffffff;stop-opacity:1"
         offset="0"
         id="stop1354" />
      <stop
         style="stop-color:#949494;stop-opacity:1"
         offset="1"
         id="stop1356" />
    </linearGradient>
    <inkscape:path-effect
       effect="bspline"
       id="path-effect1604"
       is_visible="true"
       lpeversion="1"
       weight="33.333333"
       steps="2"
       helper_size="0"
       apply_no_weight="true"
       apply_with_weight="true"
       only_selected="false" />
    <radialGradient
       spreadMethod="reflect"
       r="2.6153741"
       fy="150.4662"
       fx="431.21878"
       cy="150.4662"
       cx="431.21878"
       gradientTransform="matrix(0.93603625,0,0,0.74052051,1335.0489,21.750355)"
       gradientUnits="userSpaceOnUse"
       id="radialGradient1612"
       xlink:href="#linearGradient1312"
       inkscape:collect="always" />
    <linearGradient
       id="linearGradient1312"
       inkscape:collect="always">
      <stop
         style="stop-color:#1a1a1a;stop-opacity:1"
         offset="0"
         id="stop1308" />
      <stop
         style="stop-color:#595959;stop-opacity:1"
         offset="1"
         id="stop1310" />
    </linearGradient>
    <inkscape:path-effect
       only_selected="false"
       apply_with_weight="true"
       apply_no_weight="true"
       helper_size="0"
       steps="2"
       weight="33.333333"
       lpeversion="1"
       is_visible="true"
       id="path-effect1606"
       effect="bspline" />
  </defs>
  <style
     id="style13" />
  <path
     sodipodi:nodetypes="aaaaaaaacccaaaaaa"
     d="m 119.01528,158.54149 c 1.1478,11.18599 1.7833,22.54172 4.955,33.40247 1.312,4.49101 2.618,9.25134 5.7598,12.92341 1.8637,2.17784 4.31,5.12766 7.3431,4.90931 3.3369,-0.24021 5.5845,-3.7577 7.0353,-6.48954 6.3824,-12.01885 4.1481,-26.42472 5.3042,-39.72001 0.8888,-10.22365 -0.1895,-20.57302 1.2488,-30.74504 1.4671,-10.36635 5.0241,-20.40117 7.4938,-30.61026 3.6711,-15.177657 9.6559,-30.037037 10.886,-45.558217 1.582,-12.27967 4.2967,-24.24979 -1.1869,-27.65917 -7.7228,-1.56197 -15.8973,2.86913 -23.3766,5.71747 -5.8487,2.13476 -8.762,4.77278 -11.5468,8.48655 -4.3842,5.84704 -5.5111,13.29435 -7.0088,20.23065 -1.3632,6.31419 -0.9332,12.84503 -1.7497,19.23615 -0.755,5.9125 -1.9873,11.76729 -2.9113,17.660057 -1.4133,9.01186 -3.6149,17.96743 -4.0276,27.062 -0.4724,10.38986 0.7192,20.80012 1.7817,31.15417 z"
     inkscape:transform-center-y="104.87654"
     inkscape:transform-center-x="-20.101614"
     style="display:inline;mix-blend-mode:normal;fill:#525252;fill-opacity:1;stroke:none;stroke-width:1.53592;stroke-linecap:butt;stroke-linejoin:miter;stroke-miterlimit:4;stroke-dasharray:none;stroke-opacity:1;image-rendering:optimizeQuality"
     id="Flipper_Back"
     inkscape:export-filename="C:\Users\jperm\Dropbox\Art\Exports\FlipperBack.png"
     inkscape:export-xdpi="300"
     inkscape:export-ydpi="300"
     inkscape:label="Flipper_Back"
     transform="matrix(8.7948886,0,0,8.4424197,-428.77868,1100.1076)" />
  <path
     inkscape:export-ydpi="300"
     inkscape:export-xdpi="300"
     inkscape:export-filename="C:\Users\jperm\Dropbox\Art\Exports\FootFront.png"
     style="display:inline;mix-blend-mode:normal;fill:url(#radialGradient1100);fill-opacity:1;stroke:none;stroke-width:4.10363;stroke-linecap:butt;stroke-linejoin:miter;stroke-miterlimit:4;stroke-dasharray:none;stroke-opacity:1;image-rendering:optimizeQuality"
     d="m 84.919599,292.34608 c 1.24,7.27134 2.9144,21.28999 5.6048,23.62181 2.5582,2.2189 12.136001,1.36193 18.377201,0.49852 9.2943,-0.96875 19.3161,-2.40614 26.6835,-2.67479 7.2652,-0.265 14.2661,2.60144 21.4655,3.10462 5.047,0.35273 9.9141,-0.30334 15.1708,-0.0644 12.8365,2.37716 -6.1227,-20.07676 -8.8115,-21.82742 -8.5973,-7.69264 -17.5937,-6.86025 -27.1009,-5.41755 -7.3873,1.12096 -19.8158,1.89155 -25.8288,-2.74187 -2.7691,-2.13422 -3.8334,-6.68226 -4.8667,-10.78097 -3.7071,-14.7023 6.3349,-34.03329 2.3265,-46.52529 -3.4945,-9.28158 -7.8438,-8.3943 -13.521001,-7.45705 -8.3856,1.38435 -13.0486,5.05192 -15.991,11.40845 -4.1073,8.874 0,20.14714 1.0201,30.11111 1.0804,9.72838 4.1367,20.91066 5.4731,28.7449 z"
     id="Foot_Back"
     sodipodi:nodetypes="cscsaccssscsaacc"
     inkscape:label="Foot_Back"
     transform="matrix(8.7948886,0,0,8.4424197,-428.77868,1100.1076)" />
  <path
     inkscape:export-ydpi="300"
     inkscape:export-xdpi="300"
     inkscape:export-filename="C:\Users\jperm\Dropbox\Art\Exports\BeakLower.png"
     inkscape:label="Beak_Lower"
     id="Beak_Lower"
     style="display:inline;mix-blend-mode:normal;fill:url(#linearGradient1618);fill-opacity:1;stroke:none;stroke-width:0.987182;stroke-linecap:butt;stroke-linejoin:miter;stroke-miterlimit:4;stroke-dasharray:none;stroke-opacity:1;image-rendering:optimizeQuality"
     d="m 2125.0026,182.08259 c -0.3174,2.09921 0.4361,5.08613 1.8099,7.26789 1.5006,2.38316 3.7416,4.24415 6.1359,4.33459 0.1675,-0.32585 0.5186,-0.78444 0.6418,-0.94774 0.041,-0.0533 0.067,-0.0906 0.089,-0.11871 0,-0.002 0.01,-0.007 0.014,-0.0104 0.3336,-0.24138 0.6768,-0.48757 1.0281,-0.73224 0.9213,-0.64161 1.8983,-1.2727 2.904,-1.77877 2.2065,-1.11031 4.5616,-1.91889 6.9244,-2.63884 2.0769,-0.63284 4.2172,-1.04092 6.3458,-1.46863 2.5932,-0.52104 5.3719,-0.33373 7.8217,-1.3358 1.3009,-0.5321 2.3533,-1.64193 3.4727,-2.41613 l -0.1601,-0.15363 h -28.9302 -0.059 v -5.3e-4 -5.4e-4 l -8.0246,6e-5 z"
     sodipodi:nodetypes="csccssssaascccscccc"
     transform="matrix(17.726143,0,0,15.290083,-36626.482,-2560.1638)" />
  <path
     inkscape:export-filename="C:\Users\jperm\Dropbox\Art\Exports\BeakUpper.png"
     inkscape:export-ydpi="300"
     inkscape:export-xdpi="300"
     inkscape:label="Beak_Upper"
     id="Beak_Upper"
     style="display:inline;opacity:1;mix-blend-mode:normal;fill:url(#linearGradient1616);fill-opacity:1;stroke:none;stroke-width:1.84287;stroke-linecap:butt;stroke-linejoin:miter;stroke-miterlimit:4;stroke-dasharray:none;stroke-opacity:1;image-rendering:optimizeQuality"
     d="m 267.18802,-105.4353 h 0.0262 l 16.17564,-9.6e-4 v 0 h 0.0826 l 58.06005,9.4e-4 0.59981,-0.39573 c -1.06983,-0.91631 -2.11668,-1.85339 -3.25846,-2.693 -1.62894,-1.19784 -3.25908,-2.43309 -5.11495,-3.32418 -3.0668,-1.47259 -6.36235,-2.68522 -9.78004,-3.26131 -2.46778,-0.41597 -4.96983,-0.50026 -7.48559,-0.46105 -4.6806,0.073 -9.40958,0.57339 -14.05814,0.16082 -3.1706,-0.28141 -6.37142,-0.56146 -9.52427,-1.03651 -2.1447,-0.32312 -4.26703,-0.73646 -6.3428,-1.30182 -0.68749,-0.18725 -1.36974,-0.39109 -2.04594,-0.61387 -0.0202,-0.005 -0.0343,-0.009 -0.0504,-0.0145 -0.14915,-0.0417 -0.26383,-0.14525 -0.3898,-0.21315 -1.26655,-0.68246 -2.15357,-1.00212 -3.18813,-1.56934 -3.42273,0.67509 -9.94994,5.09586 -13.71269,14.72296 z"
     sodipodi:nodetypes="cccccccsassssscscscc"
     transform="matrix(8.7948886,0,0,8.4424197,-1308.2676,1119.6588)" />
  <path
     inkscape:export-ydpi="300"
     inkscape:export-xdpi="300"
     inkscape:export-filename="C:\Users\jperm\Dropbox\Art\Exports\FootBack.png"
     sodipodi:nodetypes="cscsaccssscsaacc"
     id="Foot_Front"
     d="m 117.43594,292.3461 c 1.2301,7.27136 2.9148,21.28996 5.6038,23.62184 2.5592,2.21883 12.1342,1.36187 18.3736,0.49851 9.2924,-0.9688 19.313,-2.4062 26.678,-2.67483 7.2646,-0.26508 14.2646,2.60144 21.4621,3.10456 5.047,0.35277 9.9128,-0.30327 15.1685,-0.0646 12.835,2.37712 -6.1231,-20.07672 -8.8103,-21.82737 -8.5965,-7.69262 -17.5897,-6.86021 -27.0944,-5.41753 -7.3865,1.12097 -19.8141,1.89154 -25.8238,-2.74187 -2.7686,-2.1342 -3.8345,-6.68223 -4.8673,-10.78096 -3.7052,-14.70221 6.3344,-34.03315 2.3266,-46.52513 -3.4951,-9.28159 -7.844,-8.3943 -13.5184,-7.45699 -8.3835,1.38429 -13.0466,5.05182 -15.9882,11.40843 -4.1061,8.87396 -0.088,20.14706 1.0177,30.11098 1.0819,9.72833 4.135,20.91058 5.4721,28.7448 z"
     style="display:inline;mix-blend-mode:normal;fill:url(#radialGradient1620);fill-opacity:1;stroke:none;stroke-width:4.10327;stroke-linecap:butt;stroke-linejoin:miter;stroke-miterlimit:4;stroke-dasharray:none;stroke-opacity:1;image-rendering:optimizeQuality"
     inkscape:label="Foot_Front"
     transform="matrix(8.7948886,0,0,8.4424197,-428.77868,1100.1076)" />
  <path
     inkscape:export-ydpi="300"
     inkscape:export-xdpi="300"
     inkscape:export-filename="C:\Users\jperm\Dropbox\Art\Exports\HeadBase.png"
     id="Head_Base"
     style="display:inline;mix-blend-mode:normal;fill:#666666;fill-opacity:1;stroke:none;stroke-width:3.55098;stroke-linecap:butt;stroke-linejoin:miter;stroke-miterlimit:4;stroke-dasharray:none;stroke-opacity:1;image-rendering:optimizeQuality"
     inkscape:label="Head_Base"
     d="m 1153.9395,17.828125 c -15.899,0.264797 -31.5838,9.661967 -42.9278,20.804687 -12.3379,12.118999 -17.8581,29.915107 -23.459,46.277344 -8.1742,23.879984 -6.8777,50.237164 -14.332,74.351564 -5.2076,16.8464 -13.2525,32.66104 -20.8301,48.61328 0,0 54.7956,49.13288 82.1934,49.13288 27.3977,0 82.1933,-49.13288 82.1933,-49.13288 -2.3003,-6.72023 -4.7366,-13.42812 -6.7464,-20.20898 -0.2887,-0.91377 -0.5342,-1.6216 -0.6793,-2.42969 -0.1048,-0.90514 -1.8458,-6.58078 -2.6192,-9.90821 -1.2468,-5.36481 -2.8583,-10.70577 -3.2558,-16.19921 -0.6122,-8.45914 -0.3985,-17.11167 1.3711,-25.40625 1.2445,-5.83329 3.6402,-11.42368 6.4121,-16.70508 0.7575,-1.44333 2.7311,-3.97067 2.7617,-4.03711 0,0 -0.041,-0.16361 -0.1172,-0.41211 -0.7611,-2.49037 -2.418,-16.82078 -2.418,-30.373048 0,-0.798136 0.01,-1.592703 0.018,-2.382812 0.027,-1.745085 0.068,-3.506949 0.1231,-5.257812 0.3977,-12.67716 1.4582,-24.835894 2.0039,-26.798829 0.035,-0.146894 0.048,-0.162815 0.023,-0.205078 -0.2514,-0.155667 -0.4942,-0.303594 -0.7305,-0.445312 -2.3746,-1.424203 -4.0386,-2.091712 -5.9785,-3.275391 -2.7097,-1.653473 -4.2615,-2.538674 -7.8906,-5.335937 -0.5786,-0.445926 -1.1903,-0.925897 -1.8418,-1.445313 -12.5118,-9.974288 -27.4926,-19.483535 -43.2734,-19.220703 z"
     transform="matrix(4.6560136,0,0,4.0455009,-4457.4735,-72.093492)"
     sodipodi:nodetypes="ssssczcccssssccsccccssscs" />
  <g
     id="Front_Eye"
     style="display:inline"
     transform="matrix(8.7948886,0,0,8.4424197,450.7099,1100.1076)"
     inkscape:label="Front_Eye">
    <path
       inkscape:label="Eye_Base"
       sodipodi:nodetypes="aaaaaaaaa"
       id="Eye_Base"
       d="m 1738.4922,129.04906 c -0.7956,-0.09 -2.0563,1.06033 -2.6751,1.80387 -0.6187,0.74354 -0.94,1.45065 -0.9384,2.02144 0,0.5708 0.3591,1.31046 1.0632,2.23195 0.704,0.92149 2.1677,2.5205 2.9662,2.50918 0.7984,-0.0113 2.259,-1.40341 3.0732,-2.27435 0.8143,-0.87093 1.418,-1.68372 1.3675,-2.14853 -0.051,-0.46482 -0.8757,-1.19887 -1.7734,-2.00223 -0.8978,-0.80336 -2.2876,-2.05132 -3.0832,-2.14133 z"
       style="display:inline;fill:url(#radialGradient1610);fill-opacity:1;stroke:none;stroke-width:1.08395;stroke-linecap:round;stroke-linejoin:round;stroke-miterlimit:4;stroke-dasharray:none;stroke-opacity:1;image-rendering:optimizeQuality"
       transform="matrix(2.065372,0,0,1.734839,-3526.0427,-346.41667)"
       inkscape:original-d="m 1738.3864,128.32967 c -1.2595,0.005 -1.9502,1.78003 -2.9103,2.6555 -0.4007,0.55543 -0.8729,1.19396 -0.8648,1.90347 0.2691,0.55649 0.6267,1.29611 0.9387,1.94198 1.0959,1.19718 1.7481,3.53906 3.2926,3.59693 0.8642,-0.82304 2.3248,-2.21515 3.4703,-3.30751 0.483,-0.64957 1.541,-1.12493 1.462,-1.96832 -0.4766,-0.42388 -1.3018,-1.15796 -1.9528,-1.73705 -1.1445,-1.02759 -2.5343,-2.27559 -3.4357,-3.085 z"
       inkscape:path-effect="#path-effect1604" />
    <path
       inkscape:label="Eye_Cornea"
       style="display:inline;fill:url(#radialGradient1612);fill-opacity:1;stroke:none;stroke-width:0.655792;stroke-linecap:butt;stroke-linejoin:round;stroke-miterlimit:4;stroke-dasharray:none;stroke-opacity:1"
       d="m 1738.5933,131.11397 c -0.5077,-0.044 -1.2086,0.48148 -1.579,0.84902 -0.3704,0.36753 -0.5593,0.70913 -0.5622,0.96971 -0,0.26059 0.2253,0.64856 0.6383,1.09148 0.4131,0.44291 1.1953,1.14497 1.7228,1.16335 0.5274,0.0184 1.3529,-0.62803 1.8348,-1.05127 0.4819,-0.42324 0.8565,-0.83756 0.8267,-1.04641 -0.03,-0.20884 -0.5347,-0.57782 -1.0635,-0.9666 -0.5287,-0.38878 -1.3102,-0.96527 -1.8179,-1.00928 z"
       id="Eye_Cornea"
       sodipodi:nodetypes="aaaaaaaaa"
       transform="matrix(2.065372,0,0,1.734839,-3526.0427,-346.41667)"
       inkscape:original-d="m 1738.5301,130.73677 c -0.692,0.003 -1.1452,0.85901 -1.7165,1.28677 -0.1694,0.30717 -0.5145,0.56238 -0.51,0.92238 0.1456,0.24733 0.3271,0.66279 0.5536,0.94105 0.6463,0.58016 1.4285,1.28219 1.9419,1.74298 0.5418,-0.4237 1.3673,-1.0701 2.0468,-1.60275 0.3108,-0.28998 0.9033,-0.50729 0.8623,-0.9538 -0.2633,-0.19235 -0.7682,-0.56133 -1.1518,-0.84173 -0.674,-0.49711 -1.4554,-1.07363 -2.0263,-1.4949 z"
       inkscape:path-effect="#path-effect1606" />
  </g>
  <g
     id="Torso_Base"
     style="display:inline"
     transform="matrix(8.7948886,0,0,8.4424197,-428.77598,1119.6596)"
     inkscape:label="Torso_Base">
    <path
       id="Torso_Back"
       style="display:inline;opacity:1;mix-blend-mode:normal;fill:#666666;fill-opacity:1;stroke:none;stroke-width:3.55098;stroke-linecap:butt;stroke-linejoin:miter;stroke-miterlimit:4;stroke-dasharray:none;stroke-opacity:1;filter:url(#filter975-3-5-5-8-3-3);image-rendering:optimizeQuality"
       inkscape:label="Torso_Back"
       d="M 1020.2832,184.82031 H 874.30664 c -3.49266,7.73777 -7.22901,15.38332 -10.87305,23.05469 h -0.002 c -0.9909,2.08596 -2.0004,4.17024 -2.9668,6.26367 -12.6064,27.30848 -28.76229,52.9991 -39.71679,81.02344 -10.98195,28.0942 -22.02343,68.17094 -25.84571,86.75391 -10.25414,49.85268 -13.63897,101.02442 -16.00976,151.875 -1.35441,29.05172 0.14159,58.17453 1.0332,87.24414 1.06985,34.88206 5.17285,68.00925 5.17969,104.5664 0,13.27238 -0.2295,26.56563 -1.27344,39.79688 -0.99586,12.62109 -2.67846,25.19456 -4.75391,37.68359 -2.03605,12.2517 -6.00045,24.163 -7.54492,36.48633 -1.90322,15.18596 -4.65434,30.77945 -2.08593,45.86719 0.54145,3.18112 1.48797,6.55406 3.61523,8.98047 2.06519,2.35553 5.10463,4.04217 8.18359,4.61914 10.77186,2.01847 21.79049,-2.57044 32.54102,-4.69922 11.1682,-2.21147 22.13848,-5.34103 33.11328,-8.36914 5.1333,-1.41633 10.04429,-3.75329 15.30469,-4.58008 2.402,-0.37752 4.81233,-0.56209 7.24023,-0.60156 0.04,0.21672 -0.18656,0.57914 0.0137,0.61523 16.1431,2.91827 47.33801,6.11373 69.75391,-0.0644 14.9188,-4.11195 29.83698,-11.98525 39.89258,-23.74805 21.68245,-25.36361 28.81255,-60.638 37.20505,-92.93359 16.8051,-64.66901 20.2546,-132.21151 25.5235,-198.82032 5.7641,-72.8677 10.0241,-146.17011 6.6211,-219.18554 -0.01,-0.10806 -0.011,-0.21616 -0.016,-0.32422 -1.4716,-36.42559 -5.5794,-72.88707 -12.7129,-108.64453 -0.6302,-3.16957 -1.2773,-6.33448 -1.959,-9.49219 -1.4768,-6.84114 -3.6462,-13.58194 -5.9492,-20.31055 0,0 0,-0.002 0,-0.002 -2.3003,-6.72023 -4.7363,-13.42812 -6.7461,-20.20898 -0.2887,-0.91377 -0.5346,-1.6216 -0.6797,-2.42969 0,-0.038 -0.099,-0.36175 -0.1094,-0.41602 z"
       transform="matrix(0.5294,0,0,0.47918738,-358.03849,-141.16255)" />
    <path
       inkscape:label="Torso_Belly"
       sodipodi:nodetypes="caaaaacsaaaaaacccc"
       id="Torso_Belly"
       style="display:inline;mix-blend-mode:normal;fill:url(#linearGradient1614);fill-opacity:1;stroke:none;stroke-width:2.83174;stroke-linecap:butt;stroke-linejoin:miter;stroke-miterlimit:4;stroke-dasharray:none;stroke-opacity:1;filter:url(#filter975-3-5-5);image-rendering:optimizeQuality"
       d="m 2681.1235,197.83898 c -9.0869,2.89641 -37.6449,24.07059 -49.1998,42.30217 -23.4296,36.96782 -25.2604,83.76451 -34.7251,126.42125 -8.159,36.77181 -13.099,74.18006 -18.9596,111.3814 -7.3318,46.53967 -13.7074,93.22354 -20.2685,139.87651 -7.9142,56.27459 -20.0531,112.17681 -23.0362,168.92025 -1.3506,25.6893 -7.1866,55.5228 2.3534,77.13745 0.1291,0.18533 -0.1919,0.6262 0.024,0.66496 15.578,2.79648 45.6823,5.85938 67.3136,-0.0611 14.3966,-3.94034 28.7914,-11.48531 38.495,-22.7572 20.9234,-24.30508 27.8041,-58.1077 35.9028,-89.05546 16.2169,-61.97009 19.5467,-126.69237 24.6312,-190.5213 5.5623,-69.82664 9.6723,-140.0703 6.3884,-210.03849 -1.7878,-38.0911 -6.0721,-76.25504 -14.1724,-113.51781 -2.8485,-13.10365 -8.369,-25.8253 -12.2504,-38.82972 -0.2787,-0.87563 -0.5155,-1.55381 -0.6556,-2.32818 -0.028,-0.20386 -1.0097,0.12244 -1.8408,0.40531 z"
       transform="matrix(0.54860336,0,0,0.50005689,-1289.7247,-151.12772)" />
  </g>
  <path
     inkscape:label="Flipper_Front"
     inkscape:export-ydpi="300"
     inkscape:export-xdpi="300"
     inkscape:export-filename="C:\Users\jperm\Dropbox\Art\Exports\FlipperFront.png"
     id="Flipper_Front"
     style="display:inline;mix-blend-mode:normal;fill:#525252;fill-opacity:1;stroke:none;stroke-width:1.75017;stroke-linecap:butt;stroke-linejoin:miter;stroke-miterlimit:4;stroke-dasharray:none;stroke-opacity:1;image-rendering:optimizeQuality"
     inkscape:transform-center-x="-22.707035"
     inkscape:transform-center-y="120.54789"
     d="m 65.260004,155.44373 c 1.2963,12.85549 2.0095,25.90008 5.5976,38.39375 1.4807,5.15514 2.9367,10.62024 6.5064,14.85453 2.0981,2.48877 4.8468,5.89161 8.2947,5.64291 3.8042,-0.27438 6.3119,-4.33814 7.947,-7.45931 7.253396,-13.84779 4.6865,-30.37546 5.9918,-45.65523 1.004196,-11.75229 -0.2159,-23.64414 1.411196,-35.33919 1.657,-11.90887 5.6756,-23.44977 8.4648,-35.184172 4.1474,-17.44596 10.9086,-34.52542 12.2975,-52.36581 1.7872,-14.11464 4.8538,-27.87344 -1.3407,-31.7922705 -8.7238,-1.79535 -17.9579,3.29786 -26.407196,6.5718205 -6.6067,2.4538 -9.9073,5.51169 -13.043,9.75469 -4.9826,6.74151 -6.2267,15.2884 -7.9178,23.25367 -1.5412,7.26138 -1.0541,14.76357 -1.9769,22.1105 -0.853,6.79497 -2.2445,13.52586 -3.2883,20.299 -1.5968,10.35878 -4.0832,20.655222 -4.5498,31.105822 -0.5334,11.94209 0.8123,23.90689 2.0127,35.80929 z"
     sodipodi:nodetypes="aaaaaaaacccaaaaaa"
     transform="matrix(8.7948886,0,0,8.4424197,-428.77868,1100.1076)" />
</svg>
