<?xml version="1.0" encoding="UTF-8" standalone="no"?>
<!-- Created with Inkscape (http://www.inkscape.org/) -->

<svg
   width="143mm"
   height="318mm"
   viewBox="0 0 143 318"
   version="1.1"
   id="svg159"
   inkscape:version="1.2.2 (732a01da63, 2022-12-09)"
   sodipodi:docname="Model_Penguin_Original_Source.svg"
   xmlns:inkscape="http://www.inkscape.org/namespaces/inkscape"
   xmlns:sodipodi="http://sodipodi.sourceforge.net/DTD/sodipodi-0.dtd"
   xmlns:xlink="http://www.w3.org/1999/xlink"
   xmlns="http://www.w3.org/2000/svg"
   xmlns:svg="http://www.w3.org/2000/svg">
  <sodipodi:namedview
     id="namedview161"
     pagecolor="#ffffff"
     bordercolor="#111111"
     borderopacity="1"
     inkscape:showpageshadow="0"
     inkscape:pageopacity="0"
     inkscape:pagecheckerboard="1"
     inkscape:deskcolor="#d1d1d1"
     inkscape:document-units="mm"
     showgrid="false"
     inkscape:window-width="1920"
     inkscape:window-height="1002"
     inkscape:window-x="-8"
     inkscape:window-y="-8"
     inkscape:window-maximized="1"
     inkscape:current-layer="svg159"
     shape-rendering="crispEdges" />
  <defs
     id="defs156">
    <filter
       inkscape:collect="always"
       style="color-interpolation-filters:sRGB"
       id="filter975-3-5-5-8-3-3"
       x="-7.6126851e-06"
       width="1.0000152"
       y="-2.9811543e-06"
       height="1.000006"
       inkscape:label="filter">
      <feGaussianBlur
         inkscape:collect="always"
         stdDeviation="0.00089215149"
         id="feGaussianBlur977-6-7-8-6-0-2" />
    </filter>
    <linearGradient
       y2="267.96399"
       x2="2781.6362"
       y1="253.28329"
       x1="2528.0066"
       gradientUnits="userSpaceOnUse"
       id="linearGradient1614"
       xlink:href="#linearGradient1211"
       inkscape:collect="always" />
    <linearGradient
       inkscape:collect="always"
       id="linearGradient1211">
      <stop
         style="stop-color:#fafafa;stop-opacity:1"
         offset="0"
         id="stop1207" />
      <stop
         style="stop-color:#8c8c8c;stop-opacity:1"
         offset="1"
         id="stop1209" />
    </linearGradient>
    <filter
       inkscape:label="filter"
       height="1.0000064"
       y="-3.1936779e-06"
       width="1.0000239"
       x="-1.194304e-05"
       id="filter975-3-5-5"
       style="color-interpolation-filters:sRGB"
       inkscape:collect="always">
      <feGaussianBlur
         id="feGaussianBlur977-6-7-8"
         stdDeviation="0.00089215149"
         inkscape:collect="always" />
    </filter>
    <radialGradient
       r="4.9343991"
       fy="148.41327"
       fx="431.3793"
       cy="148.41327"
       cx="431.3793"
       gradientTransform="matrix(0.93603625,0,0,0.93721071,1335.0489,-6.049578)"
       gradientUnits="userSpaceOnUse"
       id="radialGradient1610-6-2"
       xlink:href="#linearGradient5394"
       inkscape:collect="always" />
    <linearGradient
       inkscape:collect="always"
       id="linearGradient5394">
      <stop
         style="stop-color:#ffffff;stop-opacity:1"
         offset="0"
         id="stop5390" />
      <stop
         style="stop-color:#969696;stop-opacity:1;"
         offset="1"
         id="stop5392" />
    </linearGradient>
    <inkscape:path-effect
       effect="bspline"
       id="path-effect1604-2-5"
       is_visible="true"
       lpeversion="1"
       weight="33.333333"
       steps="2"
       helper_size="0"
       apply_no_weight="true"
       apply_with_weight="true"
       only_selected="false" />
    <radialGradient
       spreadMethod="reflect"
       r="2.6153741"
       fy="150.4662"
       fx="431.21878"
       cy="150.4662"
       cx="431.21878"
       gradientTransform="matrix(0.93603625,0,0,0.74052051,1335.0489,21.750355)"
       gradientUnits="userSpaceOnUse"
       id="radialGradient1612-1-1"
       xlink:href="#linearGradient1312"
       inkscape:collect="always" />
    <linearGradient
       id="linearGradient1312"
       inkscape:collect="always">
      <stop
         style="stop-color:#19191a;stop-opacity:1;"
         offset="0"
         id="stop1308" />
      <stop
         style="stop-color:#4b4b4b;stop-opacity:1;"
         offset="1"
         id="stop1310" />
    </linearGradient>
    <inkscape:path-effect
       only_selected="false"
       apply_with_weight="true"
       apply_no_weight="true"
       helper_size="0"
       steps="2"
       weight="33.333333"
       lpeversion="1"
       is_visible="true"
       id="path-effect1606-0-1"
       effect="bspline" />
    <radialGradient
       inkscape:collect="always"
       xlink:href="#linearGradient1195"
       id="radialGradient1620"
       gradientUnits="userSpaceOnUse"
       gradientTransform="matrix(2.4550757,0.01583455,-0.00586588,1.6880502,-2219.8,-411.29717)"
       cx="957.88153"
       cy="414.26337"
       fx="957.88153"
       fy="414.26337"
       r="28.390963" />
    <linearGradient
       inkscape:collect="always"
       id="linearGradient1195">
      <stop
         style="stop-color:#414141;stop-opacity:1;"
         offset="0"
         id="stop1191" />
      <stop
         style="stop-color:#5e5e5e;stop-opacity:1"
         offset="1"
         id="stop1193" />
    </linearGradient>
    <linearGradient
       y2="94.328964"
       x2="493.42761"
       y1="60.179031"
       x1="493.61612"
       gradientTransform="matrix(0.56287861,0,0,0.48287431,27.957799,-142.58079)"
       gradientUnits="userSpaceOnUse"
       id="linearGradient1616"
       xlink:href="#linearGradient1403"
       inkscape:collect="always" />
    <linearGradient
       inkscape:collect="always"
       id="linearGradient1403">
      <stop
         style="stop-color:#cccccc;stop-opacity:1"
         offset="0"
         id="stop1399" />
      <stop
         style="stop-color:#808080;stop-opacity:1"
         offset="1"
         id="stop1401" />
    </linearGradient>
    <linearGradient
       y2="84.30088"
       x2="494.80939"
       y1="137.14357"
       x1="495.28391"
       gradientTransform="matrix(0.29252672,0,0,0.26661906,2000.7334,161.57677)"
       gradientUnits="userSpaceOnUse"
       id="linearGradient1618"
       xlink:href="#linearGradient1411"
       inkscape:collect="always" />
    <linearGradient
       inkscape:collect="always"
       id="linearGradient1411">
      <stop
         style="stop-color:#737373;stop-opacity:1"
         offset="0"
         id="stop1407" />
      <stop
         style="stop-color:#bfbfbf;stop-opacity:1"
         offset="1"
         id="stop1409" />
    </linearGradient>
    <radialGradient
       r="28.390963"
       fy="414.26337"
       fx="957.88153"
       cy="414.26337"
       cx="957.88153"
       gradientTransform="matrix(2.4555395,0.01583465,-0.005867,1.6880554,-2252.7569,-411.29941)"
       gradientUnits="userSpaceOnUse"
       id="radialGradient1100"
       xlink:href="#linearGradient1195"
       inkscape:collect="always" />
  </defs>
  <path
     inkscape:label="Flipper_Back"
     inkscape:export-ydpi="300"
     inkscape:export-xdpi="300"
     inkscape:export-filename="C:\Users\jperm\Dropbox\Art\Exports\FlipperFront.png"
     id="Flipper_Back"
     style="display:inline;mix-blend-mode:normal;fill:#525252;fill-opacity:1;stroke:none;stroke-width:1.75017;stroke-linecap:butt;stroke-linejoin:miter;stroke-miterlimit:4;stroke-dasharray:none;stroke-opacity:1;image-rendering:optimizeQuality"
     inkscape:transform-center-x="-5.5989276"
     inkscape:transform-center-y="31.755798"
     d="m 65.260004,155.44373 c 1.2963,12.85549 2.0095,25.90008 5.5976,38.39375 1.4807,5.15514 2.9367,10.62024 6.5064,14.85453 2.0981,2.48877 4.8468,5.89161 8.2947,5.64291 3.8042,-0.27438 6.3119,-4.33814 7.947,-7.45931 7.253396,-13.84779 4.6865,-30.37546 5.9918,-45.65523 1.004196,-11.75229 -0.2159,-23.64414 1.411196,-35.33919 1.657,-11.90887 5.6756,-23.44977 8.4648,-35.184172 4.1474,-17.44596 10.9086,-34.52542 12.2975,-52.36581 1.7872,-14.11464 4.8538,-27.87344 -1.3407,-31.7922705 -8.7238,-1.79535 -17.9579,3.29786 -26.407196,6.5718205 -6.6067,2.4538 -9.9073,5.51169 -13.043,9.75469 -4.9826,6.74151 -6.2267,15.2884 -7.9178,23.25367 -1.5412,7.26138 -1.0541,14.76357 -1.9769,22.1105 -0.853,6.79497 -2.2445,13.52586 -3.2883,20.299 -1.5968,10.35878 -4.0832,20.655222 -4.5498,31.105822 -0.5334,11.94209 0.8123,23.90689 2.0127,35.80929 z"
     sodipodi:nodetypes="aaaaaaaacccaaaaaa"
     transform="matrix(0.57376959,0,0,0.58842756,11.280387,106.37184)" />
  <path
     inkscape:export-ydpi="300"
     inkscape:export-xdpi="300"
     inkscape:export-filename="C:\Users\jperm\Dropbox\Art\Exports\FootFront.png"
     style="display:inline;mix-blend-mode:normal;fill:url(#radialGradient1100);fill-opacity:1;stroke:none;stroke-width:4.10363;stroke-linecap:butt;stroke-linejoin:miter;stroke-miterlimit:4;stroke-dasharray:none;stroke-opacity:1;image-rendering:optimizeQuality"
     d="m 84.919599,292.34608 c 1.24,7.27134 2.9144,21.28999 5.6048,23.62181 2.5582,2.2189 12.136001,1.36193 18.377201,0.49852 9.2943,-0.96875 19.3161,-2.40614 26.6835,-2.67479 7.2652,-0.265 14.2661,2.60144 21.4655,3.10462 5.047,0.35273 9.9141,-0.30334 15.1708,-0.0644 12.8365,2.37716 -6.1227,-20.07676 -8.8115,-21.82742 -8.5973,-7.69264 -17.5937,-6.86025 -27.1009,-5.41755 -7.3873,1.12096 -19.8158,1.89155 -25.8288,-2.74187 -2.7691,-2.13422 -3.8334,-6.68226 -4.8667,-10.78097 -3.7071,-14.7023 6.3349,-34.03329 2.3265,-46.52529 -3.4945,-9.28158 -7.8438,-8.3943 -13.521001,-7.45705 -8.3856,1.38435 -13.0486,5.05192 -15.991,11.40845 -4.1073,8.874 0,20.14714 1.0201,30.11111 1.0804,9.72838 4.1367,20.91066 5.4731,28.7449 z"
     id="Foot_Back"
     sodipodi:nodetypes="cscsaccssscsaacc"
     inkscape:label="Foot_Back"
     transform="matrix(0.74999949,0,0,0.73029263,-38.978589,86.222024)" />
  <path
     inkscape:export-ydpi="300"
     inkscape:export-xdpi="300"
     inkscape:export-filename="C:\Users\jperm\Dropbox\Art\Exports\BeakLower.png"
     inkscape:label="Beak_Lower"
     id="Beak_Lower"
     style="display:inline;mix-blend-mode:normal;fill:url(#linearGradient1618);fill-opacity:1;stroke:none;stroke-width:0.987182;stroke-linecap:butt;stroke-linejoin:miter;stroke-miterlimit:4;stroke-dasharray:none;stroke-opacity:1;image-rendering:optimizeQuality"
     d="m 2119.6214,185.49972 c 5.2844,6.04923 6.7533,6.33568 11.7246,10.71685 3.5149,-3.46723 8.4539,-4.69988 12.9342,-5.17511 4.5087,-0.47824 9.4863,-0.66085 13.8686,-2.57487 1.1181,-0.48834 1.9156,-1.4399 3.035,-2.2141 l -0.1601,-0.15363 -31.9556,-0.37647 c -3.4686,-0.0383 -4.9563,-0.25945 -9.4644,-0.22263 z"
     sodipodi:nodetypes="ccsaccccc"
     transform="matrix(1.4928396,0,0,1.2844466,-3084.9236,-215.06781)" />
  <path
     inkscape:export-filename="C:\Users\jperm\Dropbox\Art\Exports\BeakUpper.png"
     inkscape:export-ydpi="300"
     inkscape:export-xdpi="300"
     inkscape:label="Beak_Upper"
     id="Beak_Upper"
     style="display:inline;mix-blend-mode:normal;fill:url(#linearGradient1616);fill-opacity:1;stroke:none;stroke-width:1.84287;stroke-linecap:butt;stroke-linejoin:miter;stroke-miterlimit:4;stroke-dasharray:none;stroke-opacity:1;image-rendering:optimizeQuality"
     d="m 256.41251,-99.215323 h 0.0262 l 19.14069,0.402287 v 0 h 0.0826 l 63.84282,0.648718 0.59981,-0.395728 c 0.1674,-0.53734 0.16807,-0.555058 -0.45649,-1.019897 -1.21515,-0.928847 -2.42946,-1.758687 -3.64555,-2.500757 -3.69501,-2.25474 -7.3228,-4.3539 -11.37543,-5.29201 -7.47354,-1.72999 -14.94812,-0.0182 -22.96136,-0.41199 -7.05897,-0.34692 -15.82038,-1.42429 -22.22859,-4.05786 -9.39227,5.64566 -12.44562,5.20023 -23.03161,12.626577 z"
     sodipodi:nodetypes="ccccccccsasccc"
     transform="matrix(0.74067765,0,0,0.70920721,-110.53556,94.056446)" />
  <path
     inkscape:export-ydpi="300"
     inkscape:export-xdpi="300"
     inkscape:export-filename="C:\Users\jperm\Dropbox\Art\Exports\FootBack.png"
     sodipodi:nodetypes="cscsaccssscsaacc"
     id="Foot_Front"
     d="m 117.43594,292.3461 c 1.2301,7.27136 2.9148,21.28996 5.6038,23.62184 2.5592,2.21883 12.1342,1.36187 18.3736,0.49851 9.2924,-0.9688 19.313,-2.4062 26.678,-2.67483 7.2646,-0.26508 14.2646,2.60144 21.4621,3.10456 5.047,0.35277 9.9128,-0.30327 15.1685,-0.0646 12.835,2.37712 -6.1231,-20.07672 -8.8103,-21.82737 -8.5965,-7.69262 -17.5897,-6.86021 -27.0944,-5.41753 -7.3865,1.12097 -19.8141,1.89154 -25.8238,-2.74187 -2.7686,-2.1342 -3.8345,-6.68223 -4.8673,-10.78096 -3.7052,-14.70221 6.3344,-34.03315 2.3266,-46.52513 -3.4951,-9.28159 -7.844,-8.3943 -13.5184,-7.45699 -8.3835,1.38429 -13.0466,5.05182 -15.9882,11.40843 -4.1061,8.87396 -0.088,20.14706 1.0177,30.11098 1.0819,9.72833 4.135,20.91058 5.4721,28.7448 z"
     style="display:inline;mix-blend-mode:normal;fill:url(#radialGradient1620);fill-opacity:1;stroke:none;stroke-width:4.10327;stroke-linecap:butt;stroke-linejoin:miter;stroke-miterlimit:4;stroke-dasharray:none;stroke-opacity:1;image-rendering:optimizeQuality"
     inkscape:label="Foot_Front"
     transform="matrix(0.75000045,0,0,0.73029262,-40.353676,86.222028)" />
  <path
     inkscape:export-ydpi="300"
     inkscape:export-xdpi="300"
     inkscape:export-filename="C:\Users\jperm\Dropbox\Art\Exports\HeadBase.png"
     id="Head_Base"
     style="display:inline;mix-blend-mode:normal;fill:#666666;fill-opacity:1;stroke:none;stroke-width:3.55098;stroke-linecap:butt;stroke-linejoin:miter;stroke-miterlimit:4;stroke-dasharray:none;stroke-opacity:1;image-rendering:optimizeQuality"
     inkscape:label="Head_Base"
     d="m 1064.0388,182.48516 c 0,0 39.8852,71.57396 70.5452,74.52272 27.3977,0 82.1933,-49.13288 82.1933,-49.13288 -5.6655,-10.65898 -5.8004,-19.05807 -8.4936,-28.81777 -2.0529,-8.13573 -6.604,-18.27969 -7.073,-27.98229 -0.3999,-8.27388 0.7315,-16.53567 3.6945,-24.49052 -1.1052,-13.85715 -1.9092,-26.40336 -2.0892,-37.965078 -0.1522,-9.783223 0.1423,-18.86154 1.0793,-27.432733 -2.67,-2.713612 -5.2966,-5.139083 -7.8805,-7.290973 -10.9965,-9.157799 -25.8827,-15.219595 -35.4022,-15.590017 -24.5331,-0.801353 -38.0951,6.782456 -51.1732,21.301389 -21.0783,23.400441 -23.0793,61.607852 -33.0281,93.898102 -3.2566,10.09353 -9.0515,21.21182 -12.3726,28.98005 z"
     transform="matrix(0.3930022,0,0,0.33984314,-376.69616,-6.0569564)"
     sodipodi:nodetypes="ccccacscscaccc" />
  <g
     id="Eye-8"
     style="display:inline"
     transform="matrix(0.60426222,0,0,0.63886427,46.881102,89.328334)"
     inkscape:label="Eye_Front">
    <path
       inkscape:label="Eye_Base"
       sodipodi:nodetypes="aaaaaaaaa"
       id="Eye_Base-9-3"
       d="m 1738.4922,129.04906 c -0.7956,-0.09 -2.0563,1.06033 -2.6751,1.80387 -0.6187,0.74354 -0.94,1.45065 -0.9384,2.02144 0,0.5708 0.3591,1.31046 1.0632,2.23195 0.704,0.92149 2.1677,2.5205 2.9662,2.50918 0.7984,-0.0113 2.259,-1.40341 3.0732,-2.27435 0.8143,-0.87093 1.418,-1.68372 1.3675,-2.14853 -0.051,-0.46482 -0.8757,-1.19887 -1.7734,-2.00223 -0.8978,-0.80336 -2.2876,-2.05132 -3.0832,-2.14133 z"
       style="display:inline;fill:url(#radialGradient1610-6-2);fill-opacity:1;stroke:none;stroke-width:1.08395;stroke-linecap:round;stroke-linejoin:round;stroke-miterlimit:4;stroke-dasharray:none;stroke-opacity:1;image-rendering:optimizeQuality"
       transform="matrix(1.8554903,0,0,1.4609171,-3164.2418,-311.1283)"
       inkscape:original-d="m 1738.3864,128.32967 c -1.2595,0.005 -1.9502,1.78003 -2.9103,2.6555 -0.4007,0.55543 -0.8729,1.19396 -0.8648,1.90347 0.2691,0.55649 0.6267,1.29611 0.9387,1.94198 1.0959,1.19718 1.7481,3.53906 3.2926,3.59693 0.8642,-0.82304 2.3248,-2.21515 3.4703,-3.30751 0.483,-0.64957 1.541,-1.12493 1.462,-1.96832 -0.4766,-0.42388 -1.3018,-1.15796 -1.9528,-1.73705 -1.1445,-1.02759 -2.5343,-2.27559 -3.4357,-3.085 z"
       inkscape:path-effect="#path-effect1604-2-5" />
    <path
       inkscape:label="Eye_Cornea"
       style="display:inline;fill:url(#radialGradient1612-1-1);fill-opacity:1;stroke:none;stroke-width:0.655585;stroke-linecap:butt;stroke-linejoin:round;stroke-miterlimit:4;stroke-dasharray:none;stroke-opacity:1"
       d="m 1738.5933,131.11397 c -0.5077,-0.044 -1.2086,0.48148 -1.579,0.84902 -0.3704,0.36753 -0.5593,0.70913 -0.5622,0.96971 -0,0.26059 0.2253,0.64856 0.6383,1.09148 0.4131,0.44291 1.1953,1.14497 1.7228,1.16335 0.5274,0.0184 1.3529,-0.62803 1.8348,-1.05127 0.4819,-0.42324 0.8565,-0.83756 0.8267,-1.04641 -0.03,-0.20884 -0.5347,-0.57782 -1.0635,-0.9666 -0.5287,-0.38878 -1.3102,-0.96527 -1.8179,-1.00928 z"
       id="Eye_Cornea-5-6"
       sodipodi:nodetypes="aaaaaaaaa"
       transform="matrix(1.7292651,0,0,1.5358894,-2944.6673,-320.84761)"
       inkscape:original-d="m 1738.5301,130.73677 c -0.692,0.003 -1.1452,0.85901 -1.7165,1.28677 -0.1694,0.30717 -0.5145,0.56238 -0.51,0.92238 0.1456,0.24733 0.3271,0.66279 0.5536,0.94105 0.6463,0.58016 1.4285,1.28219 1.9419,1.74298 0.5418,-0.4237 1.3673,-1.0701 2.0468,-1.60275 0.3108,-0.28998 0.9033,-0.50729 0.8623,-0.9538 -0.2633,-0.19235 -0.7682,-0.56133 -1.1518,-0.84173 -0.674,-0.49711 -1.4554,-1.07363 -2.0263,-1.4949 z"
       inkscape:path-effect="#path-effect1606-0-1" />
  </g>
  <g
     id="Torso_Base"
     style="display:inline;mix-blend-mode:normal;stroke-width:0.999952;stroke-dasharray:none"
     transform="matrix(0.73874741,0,0,0.71536408,-36.017483,93.627428)"
     inkscape:label="Torso_Base">
    <path
       id="Torso_Back"
       style="display:inline;opacity:1;mix-blend-mode:normal;fill:#666666;fill-opacity:1;stroke:none;stroke-width:1.98534;stroke-linecap:butt;stroke-linejoin:miter;stroke-miterlimit:4;stroke-dasharray:none;stroke-opacity:1;filter:url(#filter975-3-5-5-8-3-3);image-rendering:optimizeQuality"
       inkscape:label="Torso_Back"
       d="m 1019.3985,181.30337 -144.94911,3.39843 c -3.49266,7.73777 -7.37176,15.50183 -11.0158,23.1732 h -0.002 c -0.9909,2.08596 -2.0004,4.17024 -2.9668,6.26367 -12.6064,27.30848 -28.76229,52.9991 -39.71679,81.02344 -10.98195,28.0942 -22.02343,68.17094 -25.84571,86.75391 -10.25414,49.85268 -13.63897,101.02442 -16.00976,151.875 -1.35441,29.05172 0.14159,58.17453 1.0332,87.24414 1.06985,34.88206 5.17285,68.00925 5.17969,104.5664 0,13.27238 -0.2295,26.56563 -1.27344,39.79688 -0.99586,12.62109 -2.67846,25.19456 -4.75391,37.68359 -2.03605,12.2517 -6.00045,24.163 -7.54492,36.48633 -1.90322,15.18596 -4.65434,30.77945 -2.08593,45.86719 0.54145,3.18112 1.48797,6.55406 3.61523,8.98047 2.06519,2.35553 5.10463,4.04217 8.18359,4.61914 10.77186,2.01847 21.79049,-2.57044 32.54102,-4.69922 11.1682,-2.21147 22.13848,-5.34103 33.11328,-8.36914 5.1333,-1.41633 10.04429,-3.75329 15.30469,-4.58008 2.402,-0.37752 4.81233,-0.56209 7.24023,-0.60156 0.04,0.21672 -0.18656,0.57914 0.0137,0.61523 16.1431,2.91827 47.33801,6.11373 69.75391,-0.0644 14.9188,-4.11195 29.83698,-11.98525 39.89258,-23.74805 21.68245,-25.36361 28.81255,-60.638 37.20505,-92.93359 16.8051,-64.66901 20.2546,-132.21151 25.5235,-198.82032 5.7641,-72.8677 10.0241,-146.17011 6.6211,-219.18554 -0.01,-0.10806 -0.011,-0.21616 -0.016,-0.32422 -1.4716,-36.42559 -5.5794,-72.88707 -12.7129,-108.64453 -0.6302,-3.16957 -1.2773,-6.33448 -1.959,-9.49219 -1.4768,-6.84114 -3.6462,-13.58194 -5.9492,-20.31055 v -0.002 c -2.3003,-6.72023 -4.7363,-13.42812 -6.7461,-20.20898 -0.2887,-0.91377 -0.5346,-1.6216 -0.6797,-2.42969 -0.4012,-1.62767 -0.3638,-1.64737 -0.9937,-3.93296 z"
       transform="matrix(0.5294,0,0,0.47918738,-358.03849,-141.16255)"
       sodipodi:nodetypes="cccccccsscsssssssssccssssccccccccc" />
    <path
       inkscape:label="Torso_Belly"
       sodipodi:nodetypes="caaaacsaaaaaaccc"
       id="Torso_Belly"
       style="display:inline;mix-blend-mode:normal;fill:url(#linearGradient1614);fill-opacity:1;stroke:none;stroke-width:1.90915;stroke-linecap:butt;stroke-linejoin:miter;stroke-miterlimit:4;stroke-dasharray:none;stroke-opacity:1;filter:url(#filter975-3-5-5);image-rendering:optimizeQuality"
       d="m 2631.9237,240.14115 c -23.4296,36.96782 -25.2604,83.76451 -34.7251,126.42125 -8.159,36.77181 -13.099,74.18006 -18.9596,111.3814 -7.3318,46.53967 -13.7074,93.22354 -20.2685,139.87651 -7.9142,56.27459 -20.0531,112.17681 -23.0362,168.92025 -1.3506,25.6893 -7.1866,55.5228 2.3534,77.13745 0.1291,0.18533 -0.1919,0.6262 0.024,0.66496 15.578,2.79648 45.6823,5.85938 67.3136,-0.0611 14.3966,-3.94034 28.7914,-11.48531 38.495,-22.7572 20.9234,-24.30508 27.8041,-58.1077 35.9028,-89.05546 16.2169,-61.97009 19.5467,-126.69237 24.6312,-190.5213 5.5623,-69.82664 9.6723,-140.0703 6.3884,-210.03849 -1.7878,-38.0911 -6.0721,-76.25504 -14.1724,-113.51781 -2.8485,-13.10365 -8.369,-25.8253 -12.2504,-38.82972 -0.2787,-0.87563 -0.5147,-1.55273 -0.6548,-2.3271 -18.539,8.2671 -39.9736,26.03121 -51.0414,42.70636 z"
       transform="matrix(0.54860336,0,0,0.50005689,-1289.7247,-151.12772)" />
  </g>
  <path
     inkscape:label="Flipper_Front"
     inkscape:export-ydpi="300"
     inkscape:export-xdpi="300"
     inkscape:export-filename="C:\Users\jperm\Dropbox\Art\Exports\FlipperFront.png"
     id="path3148"
     style="display:inline;mix-blend-mode:normal;fill:#525252;fill-opacity:1;stroke:none;stroke-width:1.75017;stroke-linecap:butt;stroke-linejoin:miter;stroke-miterlimit:4;stroke-dasharray:none;stroke-opacity:1;image-rendering:optimizeQuality"
     inkscape:transform-center-x="-6.3987748"
     inkscape:transform-center-y="36.292341"
     d="m 65.260004,155.44373 c 1.2963,12.85549 2.0095,25.90008 5.5976,38.39375 1.4807,5.15514 2.9367,10.62024 6.5064,14.85453 2.0981,2.48877 4.8468,5.89161 8.2947,5.64291 3.8042,-0.27438 6.3119,-4.33814 7.947,-7.45931 7.253396,-13.84779 4.6865,-30.37546 5.9918,-45.65523 1.004196,-11.75229 -0.2159,-23.64414 1.411196,-35.33919 1.657,-11.90887 5.6756,-23.44977 8.4648,-35.184172 4.1474,-17.44596 10.9086,-34.52542 12.2975,-52.36581 1.7872,-14.11464 4.8538,-27.87344 -1.3407,-31.7922705 -8.7238,-1.79535 -17.9579,3.29786 -26.407196,6.5718205 -6.6067,2.4538 -9.9073,5.51169 -13.043,9.75469 -4.9826,6.74151 -6.2267,15.2884 -7.9178,23.25367 -1.5412,7.26138 -1.0541,14.76357 -1.9769,22.1105 -0.853,6.79497 -2.2445,13.52586 -3.2883,20.299 -1.5968,10.35878 -4.0832,20.655222 -4.5498,31.105822 -0.5334,11.94209 0.8123,23.90689 2.0127,35.80929 z"
     sodipodi:nodetypes="aaaaaaaacccaaaaaa"
     transform="matrix(0.65573668,0,0,0.67248866,-27.894801,90.853529)" />
</svg>
