<?xml version="1.0" encoding="UTF-8" standalone="no"?>
<svg
   xmlns:osb="http://www.openswatchbook.org/uri/2009/osb"
   xmlns:dc="http://purl.org/dc/elements/1.1/"
   xmlns:cc="http://creativecommons.org/ns#"
   xmlns:rdf="http://www.w3.org/1999/02/22-rdf-syntax-ns#"
   xmlns:svg="http://www.w3.org/2000/svg"
   xmlns="http://www.w3.org/2000/svg"
   xmlns:xlink="http://www.w3.org/1999/xlink"
   xmlns:sodipodi="http://sodipodi.sourceforge.net/DTD/sodipodi-0.dtd"
   xmlns:inkscape="http://www.inkscape.org/namespaces/inkscape"
   width="31.978216mm"
   height="63.997597mm"
   viewBox="0 0 31.978216 63.997597"
   version="1.1"
   id="svg968"
   inkscape:version="1.0 (4035a4fb49, 2020-05-01)"
   sodipodi:docname="penguin.svg">
  <defs
     id="defs962">
    <linearGradient
       inkscape:collect="always"
       xlink:href="#linearGradient5717"
       id="linearGradient5731"
       x1="90.109818"
       y1="121.45651"
       x2="95.956757"
       y2="121.45651"
       gradientUnits="userSpaceOnUse"
       gradientTransform="matrix(1.5995939,0,0,1.6079938,-33.637354,-34.149602)" />
    <linearGradient
       id="linearGradient5717"
       osb:paint="solid">
      <stop
         style="stop-color:#333333;stop-opacity:1;"
         offset="0"
         id="stop5715" />
    </linearGradient>
    <linearGradient
       inkscape:collect="always"
       xlink:href="#linearGradient5717"
       id="linearGradient5725"
       x1="87.804184"
       y1="121.62625"
       x2="95.525032"
       y2="121.62625"
       gradientUnits="userSpaceOnUse"
       gradientTransform="translate(16.455292,16.573171)" />
    <filter
       inkscape:label="filter"
       height="1.0001562"
       y="-7.8087338e-05"
       width="1.0005925"
       x="-0.0002962265"
       id="filter975-5"
       style="color-interpolation-filters:sRGB"
       inkscape:collect="always">
      <feGaussianBlur
         id="feGaussianBlur977-9"
         stdDeviation="0.00059036366"
         inkscape:collect="always" />
    </filter>
    <radialGradient
       inkscape:collect="always"
       xlink:href="#linearGradient5310"
       id="radialGradient5879"
       cx="94.933746"
       cy="85.177803"
       fx="94.933746"
       fy="85.177803"
       r="0.64073843"
       gradientTransform="matrix(1,0,0,0.84891887,16.455292,29.441931)"
       gradientUnits="userSpaceOnUse" />
    <linearGradient
       id="linearGradient5310"
       inkscape:collect="always">
      <stop
         style="stop-color:#1a1a1a;stop-opacity:0;"
         offset="0"
         id="stop5308" />
      <stop
         style="stop-color:#1a1a1a;stop-opacity:1;"
         offset="1"
         id="stop5306" />
    </linearGradient>
    <radialGradient
       inkscape:collect="always"
       xlink:href="#linearGradient5310"
       id="radialGradient5871"
       cx="94.933746"
       cy="85.177803"
       fx="94.933746"
       fy="85.177803"
       r="0.64073843"
       gradientTransform="matrix(1,0,0,0.84891887,16.455292,29.441931)"
       gradientUnits="userSpaceOnUse" />
    <filter
       style="color-interpolation-filters:sRGB"
       inkscape:label="Blend"
       id="filter6209">
      <feBlend
         in2="BackgroundImage"
         mode="lighten"
         result="blend"
         id="feBlend6207" />
    </filter>
    <linearGradient
       inkscape:collect="always"
       xlink:href="#linearGradient5310"
       id="linearGradient5321"
       x1="85.900795"
       y1="102.87994"
       x2="90.686699"
       y2="102.87994"
       gradientUnits="userSpaceOnUse"
       gradientTransform="translate(16.455292,16.573171)" />
    <radialGradient
       inkscape:collect="always"
       xlink:href="#linearGradient5310"
       id="radialGradient5299"
       cx="88.027939"
       cy="103.36003"
       fx="88.027939"
       fy="103.36003"
       r="2.3929532"
       gradientTransform="matrix(0.99995858,-0.00616586,0.02764184,4.4828641,13.603102,-341.50103)"
       gradientUnits="userSpaceOnUse" />
    <filter
       inkscape:collect="always"
       style="color-interpolation-filters:sRGB"
       id="filter5256"
       x="-0.0002962265"
       width="1.0005925"
       y="-7.8087338e-05"
       height="1.0001562"
       inkscape:label="filter">
      <feGaussianBlur
         inkscape:collect="always"
         stdDeviation="0.00059036366"
         id="feGaussianBlur5254" />
    </filter>
  </defs>
  <sodipodi:namedview
     id="base"
     pagecolor="#ffffff"
     bordercolor="#666666"
     borderopacity="1.0"
     inkscape:pageopacity="0.0"
     inkscape:pageshadow="2"
     inkscape:zoom="0.35"
     inkscape:cx="22.047074"
     inkscape:cy="182.04516"
     inkscape:document-units="mm"
     inkscape:current-layer="layer1"
     inkscape:document-rotation="0"
     showgrid="false"
     inkscape:window-width="1280"
     inkscape:window-height="658"
     inkscape:window-x="-6"
     inkscape:window-y="-6"
     inkscape:window-maximized="1" />
  <metadata
     id="metadata965">
    <rdf:RDF>
      <cc:Work
         rdf:about="">
        <dc:format>image/svg+xml</dc:format>
        <dc:type
           rdf:resource="http://purl.org/dc/dcmitype/StillImage" />
        <dc:title />
      </cc:Work>
    </rdf:RDF>
  </metadata>
  <g
     transform="translate(-100.00005,-100.00055)"
     inkscape:label="Layer 1"
     inkscape:groupmode="layer"
     id="layer1">
    <path
       id="path1323-3-5-6-8-3"
       d="m 110.61139,159.29762 c -0.0461,0.70627 0.25755,1.66465 0.58623,2.2841 0.0587,0.11061 0.11864,0.57937 0.45762,0.75527 0.86891,0.18804 1.96284,0.30715 2.9591,0.4999 2.61279,0.2011 2.35316,-0.0936 3.09053,-0.0826 1.89339,0.0296 2.24236,-0.67523 1.95692,-1.17155 -0.24898,-0.11012 -0.61415,-0.53312 -1.08843,-0.60727 -0.95483,-0.14934 -2.23948,0.0861 -3.1213,-0.0709 -1.42746,-0.25428 -2.46949,-0.57838 -2.41589,-1.55754"
       style="display:inline;opacity:1;fill:url(#linearGradient5731);fill-opacity:1;stroke:#000000;stroke-width:0.210252;stroke-linecap:butt;stroke-linejoin:miter;stroke-miterlimit:4;stroke-dasharray:none;stroke-opacity:1"
       inkscape:export-xdpi="96"
       inkscape:export-ydpi="96"
       sodipodi:nodetypes="csccccssc" />
    <path
       sodipodi:nodetypes="cccccsscc"
       inkscape:export-ydpi="96"
       inkscape:export-xdpi="96"
       style="display:inline;opacity:1;mix-blend-mode:normal;fill:url(#linearGradient5725);fill-opacity:1;fill-rule:nonzero;stroke:#1a1a1a;stroke-width:0.185;stroke-linecap:round;stroke-linejoin:round;stroke-miterlimit:4;stroke-dasharray:none;stroke-opacity:1;filter:url(#filter975-5)"
       d="m 104.31084,136.59924 c -0.21187,0.37046 0.32577,1.32383 0.40799,1.57361 0.06,0.1816 0.32535,0.98017 0.86208,1.10305 0.40263,0.0923 1.42872,0.41272 1.6964,0.45239 1.25098,0.18605 3.00101,-0.0519 3.62086,-0.0417 1.59166,0.0274 1.07911,-0.62462 0.62217,-1.11838 -0.27852,-0.30094 -0.61233,-0.21226 -0.97012,-0.22981 -0.7083,-0.0347 -1.51057,0.0565 -2.16376,-0.3191 -0.6286,-0.39866 -1.03248,-0.69335 -0.94992,-1.05359"
       id="path1323-3-5-5-7"
       transform="matrix(1.599594,0,0,1.6079938,-59.959139,-60.799159)" />
    <path
       style="display:inline;opacity:0.759615;fill:#1a1a1a;fill-opacity:1;stroke:#000000;stroke-width:0.218251;stroke-linecap:butt;stroke-linejoin:miter;stroke-miterlimit:4;stroke-dasharray:none;stroke-opacity:1"
       d="m 120.53927,110.86096 c 0.14326,-2.65717 1.62022,-5.51059 6.54002,-6.11456 1.54493,-0.18992 2.51944,-0.395 4.65729,-0.46362 -1.84188,-2.00094 -3.76145,-1.44497 -5.32492,-1.56343 -2.72819,-0.20674 -3.6227,0.36011 -5.17223,-0.553 v 0 c 0,0 -3.67154,-4.016612 -7.56054,-0.83142 0,0 -1.93161,2.04381 -2.23949,3.61373 -0.28543,1.45568 -0.85855,2.94637 -1.72103,4.18468 -0.008,0.13093 -0.12168,0.20834 -0.18034,0.30112 -0.0636,0.0877 -0.10953,0.1749 -0.14791,0.24374 -0.86492,1.55224 -1.90613,3.00232 -3.11159,4.26353 -2.85173,3.96638 -4.0302,7.97742 -4.53049,11.91658 -1.50897,11.88133 -1.32178,15.99771 -0.17639,22.64188 0.5643,2.23466 -0.5851,4.62635 -1.08942,6.55431 -0.13606,1.75788 -1.019298,4.41002 0.53332,5.4261 2.10995,-0.0917 3.88578,-0.59783 5.75758,-1.62769 0,0 0.35323,-0.0736 0.85451,0.0367 0.39974,0.088 0.97971,0.19163 1.58298,0.28048 2.40482,0.35425 5.96753,0.4724 7.55459,-1.58854 4.81884,-7.04166 7.76022,-34.62053 4.66274,-42.54816 -0.31277,-0.58041 -0.64208,-1.53149 -0.79689,-2.6316 -0.0716,-0.50949 -0.10585,-1.05093 -0.0837,-1.60234 9.9e-4,-0.037 -0.003,-0.0695 0.005,-0.10884"
       id="path5797" />
    <path
       style="display:inline;fill:url(#radialGradient5879);fill-opacity:1;stroke:url(#radialGradient5871);stroke-width:0.136085;stroke-linecap:butt;stroke-linejoin:miter;stroke-miterlimit:4;stroke-dasharray:none;stroke-opacity:0.200803;filter:url(#filter6209)"
       d="m 110.89848,101.52211 c -0.45593,1.0586 1.12356,0.70816 1.06154,0.3377 -0.10359,-0.61875 -0.87404,-0.77307 -1.06154,-0.3377 z"
       id="path3209-6-3"
       sodipodi:nodetypes="sss"
       transform="matrix(1.599594,0,0,1.6079938,-59.959139,-60.799159)" />
    <path
       id="path1321-7-3-3-43"
       d="m 120.62313,112.38179 c -1.22825,0.17267 -2.36784,0.64575 -3.08203,1.57299 -2.10362,2.73121 -2.00373,8.607 -3.81351,11.93718 -2.29399,3.91055 -3.13041,12.03014 -3.33538,19.05957 -0.0554,1.90399 -0.53437,3.55282 -0.60016,5.2179 -0.0657,1.66098 -0.32597,4.35597 -0.60685,6.16268 -0.0617,0.54263 -0.0729,1.51669 0.0128,2.16717 0.0451,0.34294 0.0238,0.52074 -10e-4,0.63892"
       style="display:inline;opacity:1;fill:#ffffff;stroke:#000000;stroke-width:0.219718;stroke-linecap:butt;stroke-linejoin:miter;stroke-miterlimit:4;stroke-dasharray:none;stroke-opacity:1" />
    <path
       sodipodi:nodetypes="scccccsccs"
       inkscape:transform-center-y="9.6959619"
       inkscape:transform-center-x="-1.897507"
       id="path2640-1-1"
       d="m 103.31971,113.41332 c -0.37627,1.02137 -0.26498,1.42345 -0.48475,3.15087 -0.13345,1.04902 -0.44124,3.0555 -0.4627,4.00527 -0.0541,2.39505 0.0424,5.32208 0.25937,6.64868 0.0706,0.43159 0.30521,0.74436 0.55615,0.95557 0.30743,0.25874 0.63935,0.36501 0.72415,0.35045 0.58324,-0.1002 1.41978,-2.78699 1.92936,-6.94537 0.13633,-1.11246 0.40993,-2.70597 0.61398,-3.78074 0.28958,-1.52532 0.69637,-3.87654 0.65119,-5.80969 -0.83881,-0.8004 -3.38908,0.34548 -3.78675,1.42496 z"
       style="display:inline;mix-blend-mode:overlay;fill:url(#linearGradient5321);fill-opacity:1;stroke:url(#radialGradient5299);stroke-width:0.136;stroke-linecap:butt;stroke-linejoin:miter;stroke-miterlimit:4;stroke-dasharray:none;stroke-opacity:1;filter:url(#filter5256)"
       transform="matrix(1.599594,0,0,1.6079938,-59.959139,-60.799159)" />
    <path
       style="display:inline;opacity:0;fill:#666666;fill-opacity:0;fill-rule:evenodd;stroke:#000000;stroke-width:0.218115;stroke-linejoin:bevel;stroke-miterlimit:4;stroke-dasharray:none;stroke-opacity:0.437751;paint-order:markers stroke fill"
       id="path5409"
       d="m 106.08903,162.80353 c 0.76763,0.15174 1.51798,0.37587 2.2696,0.59114 0.49784,0.13557 0.99491,0.28815 1.50997,0.34241 0.0546,0.006 0.10953,0.008 0.16444,0.0112 0.28852,0.006 0.33826,-0.0536 0.62819,-0.23652 0.0225,-0.0144 0.0144,-0.0411 0.0128,-0.0608 -0.0429,-0.0815 -0.13287,-0.0828 -0.21415,-0.0871 -0.024,-4.4e-4 -0.048,-10e-4 -0.0721,-0.002 0,0 -0.30375,0.22029 -0.30375,0.22029 v 0 c 0.0228,8.5e-4 0.0458,0.002 0.0686,0.003 0.0526,0.003 0.13223,-8.5e-4 0.17247,0.0411 -0.008,0.0178 -0.003,0.008 -0.0219,0.0258 0.0974,-0.0546 0.19494,-0.10901 0.29241,-0.16359 0.0187,-0.0112 -0.0394,0.0194 -0.0601,0.0258 -0.0925,0.029 -0.12136,0.0243 -0.22486,0.0323 -0.17426,-0.001 -0.21129,0.002 -0.39601,-0.0179 -0.45606,-0.0495 -0.9016,-0.16528 -1.34453,-0.28083 -0.73064,-0.19917 -1.46096,-0.40477 -2.17648,-0.65407 0,0 -0.30533,0.2093 -0.30533,0.2093 z" />
    <path
       style="display:inline;opacity:0;fill:#333333;fill-opacity:0;fill-rule:evenodd;stroke:#000000;stroke-width:0.218115;stroke-linejoin:bevel;stroke-miterlimit:4;stroke-dasharray:none;stroke-opacity:0.437751;paint-order:markers stroke fill"
       id="path5413"
       d="m 103.41233,162.70435 c 0.0736,0.0194 0.14678,0.0395 0.22074,0.058 0.12217,0.0304 0.24514,0.0575 0.36716,0.0885 0.45469,0.11557 0.90574,0.24553 1.35945,0.36479 0.0702,0.0179 0.14038,0.0359 0.21072,0.0539 0,0 0.26796,-0.18697 0.26796,-0.18697 v 0 c -0.0753,-0.0144 -0.15046,-0.0285 -0.2259,-0.0426 -0.64386,-0.13606 -1.2893,-0.28811 -1.89957,-0.53979 0,0 -0.30056,0.20458 -0.30056,0.20458 z" />
    <path
       style="display:inline;opacity:0;fill:#333333;fill-opacity:0;fill-rule:evenodd;stroke:#000000;stroke-width:0.218115;stroke-linejoin:bevel;stroke-miterlimit:4;stroke-dasharray:none;stroke-opacity:0.437751;paint-order:markers stroke fill"
       id="path5421"
       d="m 103.23609,162.79084 c 0.56028,0.0567 1.1152,0.15654 1.66905,0.25684 0.2854,0.0527 0.1511,0.028 0.40286,0.0741 0,0 0.2767,-0.19587 0.2767,-0.19587 v 0 c -0.26954,-0.0323 -0.12631,-0.0144 -0.42957,-0.0547 -0.53818,-0.0792 -1.07748,-0.16387 -1.60416,-0.30242 0,0 -0.31488,0.22206 -0.31488,0.22206 z" />
    <path
       style="display:inline;opacity:0;fill:#333333;fill-opacity:0;fill-rule:evenodd;stroke:#000000;stroke-width:0.218115;stroke-linejoin:bevel;stroke-miterlimit:4;stroke-dasharray:none;stroke-opacity:0.437751;paint-order:markers stroke fill"
       id="path5423"
       d="m 105.28605,162.79393 c -0.1503,-0.0474 -0.28182,-0.13494 -0.39087,-0.24774 -0.0144,-0.0221 -0.0461,-0.0616 -0.0498,-0.0917 -0.008,-0.0632 0.0761,-0.11381 0.11672,-0.14438 0.0196,-0.0128 0.039,-0.0264 0.059,-0.0387 0.0209,-0.0128 0.085,-0.0496 0.0639,-0.0368 -0.0838,0.0504 -0.17038,0.0964 -0.25232,0.14982 -0.0212,0.0144 0.0461,-0.0213 0.0696,-0.0307 0.0299,-0.0112 0.14597,-0.0519 0.17041,-0.0603 0.29618,-0.10388 0.59274,-0.20474 0.89582,-0.28658 0.01,-0.003 0.21711,-0.0567 0.20706,-0.003 -0.002,0.01 -0.01,0.0182 -0.016,0.0272 -0.0112,0.017 -0.0228,0.0331 -0.0344,0.0496 -0.0895,0.12261 -0.20632,0.21953 -0.32515,0.31202 -0.0385,0.0299 -0.0758,0.0616 -0.11656,0.0883 -0.043,0.0282 -0.0897,0.0507 -0.13447,0.0759 0.0529,-0.0378 0.13846,-0.0517 0.15861,-0.1138 0.0144,-0.0437 -0.0873,0.0298 -0.13287,0.0346 -0.0416,0.005 -0.0845,0.002 -0.12535,-0.006 -0.18465,-0.0405 -0.27666,-0.15863 -0.39855,-0.29006 -0.0418,-0.0626 -0.0871,-0.12293 -0.12503,-0.18775 -0.12951,-0.22165 -0.2302,-0.48191 -0.23888,-0.74171 -0.002,-0.0445 0.005,-0.0892 0.008,-0.13366 0.0302,-0.1447 0.0961,-0.24877 0.21664,-0.33337 0.0227,-0.0162 0.0958,-0.0567 0.0723,-0.0418 -0.0824,0.0517 -0.1659,0.10148 -0.24885,0.15238 0.15173,-0.0603 0.3178,-0.0495 0.47732,-0.0663 0.0611,-0.006 0.12199,-0.0162 0.18303,-0.0231 0.0683,-0.01 0.13638,-0.0182 0.20465,-0.0274 0,0 0.26672,-0.19992 0.26672,-0.19992 v 0 c -0.0659,0.008 -0.13191,0.0162 -0.19786,0.0231 -0.15526,0.0144 -0.15478,0.0162 -0.29541,0.0214 -0.0918,0.003 -0.18619,8.5e-4 -0.27681,0.0194 -0.0236,0.005 -0.0464,0.0128 -0.0697,0.0202 -0.21477,0.11909 -0.54011,0.2308 -0.62454,0.50102 -0.0112,0.0376 -0.016,0.0771 -0.0236,0.11589 4.2e-4,0.0451 -0.003,0.0904 0.002,0.13542 0.0349,0.3417 0.20577,0.65554 0.38652,0.93905 0.0435,0.0543 0.0821,0.11301 0.13079,0.16239 0.0683,0.0696 0.16707,0.13637 0.2626,0.16299 0.25498,0.0709 0.51527,-0.14822 0.7134,-0.24666 0.0453,-0.0271 0.0919,-0.0515 0.1356,-0.0812 0.0409,-0.0277 0.079,-0.0594 0.11783,-0.09 0.1252,-0.0984 0.24838,-0.20226 0.34214,-0.3326 0.0243,-0.0427 0.076,-0.11653 0.0144,-0.15878 -0.0585,-0.0397 -0.17831,0.01 -0.23387,0.02 -0.29769,0.0864 -0.59163,0.18442 -0.8872,0.27761 -0.0712,0.0231 -0.17269,0.0466 -0.23824,0.0821 -0.17265,0.0933 -0.35081,0.18777 -0.51231,0.30228 -0.11959,0.1074 -0.13863,0.15846 -0.035,0.2905 0.11465,0.11093 0.24671,0.19821 0.38907,0.2699 0,0 0.32048,-0.21858 0.32048,-0.21858 z" />
    <path
       style="display:inline;opacity:0;fill:#333333;fill-opacity:0;fill-rule:evenodd;stroke:#000000;stroke-width:0.218115;stroke-linejoin:bevel;stroke-miterlimit:4;stroke-dasharray:none;stroke-opacity:0.437751;paint-order:markers stroke fill"
       id="path5433"
       d="m 113.82688,153.70854 c -0.0342,0.0554 -0.0624,0.11509 -0.10265,0.16607 -0.15925,0.20254 -0.39505,0.42747 -0.57891,0.59784 -0.36915,0.34211 -0.75838,0.63368 -1.17234,0.91769 -0.45451,0.29151 -0.92401,0.57883 -1.45079,0.71379 -0.0406,0.006 -0.0814,0.0128 -0.12199,0.0186 0,0 1.07331,0.1495 1.07331,0.1495 v 0 c 0.0395,-0.01 0.0789,-0.0197 0.11832,-0.0294 0.49011,-0.17183 0.92259,-0.46813 1.34993,-0.75829 0.40757,-0.2938 0.79468,-0.59807 1.17155,-0.93117 0.12264,-0.10836 0.53803,-0.4784 0.66625,-0.61284 0.0503,-0.0528 0.09,-0.11493 0.13511,-0.17226 0,0 -1.08769,-0.0592 -1.08769,-0.0592 z" />
    <path
       sodipodi:nodetypes="ccsccsssscscccccc"
       id="path4695-9-6-7"
       d="m 116.70473,157.49725 c 4.78597,-6.99548 7.98414,-34.06331 4.90779,-41.93894 -0.0987,-0.32787 -0.19863,-0.42134 -0.33088,-0.76893 -0.2378,-0.62515 -0.42865,-1.2419 -0.57888,-1.77966 l -0.13991,-0.50888 c -0.053,0.008 0.0128,-0.0839 -0.0408,-0.0847 -0.15941,-0.003 -0.46526,0.11605 -0.6239,0.13621 -0.34322,0.0437 -0.67847,0.22198 -0.97957,0.35544 -0.58377,0.25877 -1.05647,0.74655 -1.44323,1.24883 -2.08926,2.7133 -1.99006,8.55057 -3.78749,11.85892 -2.27835,3.8849 -3.10908,11.95125 -3.31263,18.93456 -0.0551,1.89153 -0.53072,3.52952 -0.59607,5.1837 -0.0652,1.65008 -0.32376,4.32742 -0.60273,6.12228 -0.0612,0.53906 -0.0724,1.50674 0.0128,2.15297 0.0448,0.34068 0.0236,0.5173 0.006,0.65052 2.39531,0.36774 5.9337,0.48514 7.50996,-1.5623 z"
       style="display:inline;opacity:1;mix-blend-mode:normal;fill:#e6e6e6;fill-opacity:1;stroke:#000000;stroke-width:0.21825;stroke-linecap:butt;stroke-linejoin:miter;stroke-miterlimit:4;stroke-dasharray:none;stroke-opacity:1;filter:url(#filter975)" />
  </g>
</svg>
