<?xml version="1.0" encoding="UTF-8" standalone="no"?>
<svg
   xmlns:osb="http://www.openswatchbook.org/uri/2009/osb"
   xmlns:dc="http://purl.org/dc/elements/1.1/"
   xmlns:cc="http://creativecommons.org/ns#"
   xmlns:rdf="http://www.w3.org/1999/02/22-rdf-syntax-ns#"
   xmlns:svg="http://www.w3.org/2000/svg"
   xmlns="http://www.w3.org/2000/svg"
   xmlns:xlink="http://www.w3.org/1999/xlink"
   xmlns:sodipodi="http://sodipodi.sourceforge.net/DTD/sodipodi-0.dtd"
   xmlns:inkscape="http://www.inkscape.org/namespaces/inkscape"
   sodipodi:docname="penguin.svg"
   inkscape:version="1.0 (4035a4fb49, 2020-05-01)"
   id="svg3240"
   version="1.1"
   viewBox="0 0 19.991262 39.833835"
   height="39.833836mm"
   width="19.991262mm"
   inkscape:export-filename="C:\Users\jperm\Dropbox\Art\penguin-v1.png"
   inkscape:export-xdpi="96"
   inkscape:export-ydpi="96">
  <defs
     id="defs3234">
    <linearGradient
       inkscape:collect="always"
       id="linearGradient5777">
      <stop
         style="stop-color:#4d4d4d;stop-opacity:1;"
         offset="0"
         id="stop5773" />
      <stop
         style="stop-color:#4d4d4d;stop-opacity:1"
         offset="1"
         id="stop5775" />
    </linearGradient>
    <linearGradient
       id="linearGradient5729"
       osb:paint="solid">
      <stop
         style="stop-color:#333333;stop-opacity:1;"
         offset="0"
         id="stop5727" />
    </linearGradient>
    <linearGradient
       id="linearGradient5723"
       osb:paint="solid">
      <stop
         style="stop-color:#333333;stop-opacity:1;"
         offset="0"
         id="stop5721" />
    </linearGradient>
    <linearGradient
       id="linearGradient5717"
       osb:paint="solid">
      <stop
         style="stop-color:#333333;stop-opacity:1;"
         offset="0"
         id="stop5715" />
    </linearGradient>
    <linearGradient
       id="linearGradient5595"
       osb:paint="solid">
      <stop
         style="stop-color:#333333;stop-opacity:1;"
         offset="0"
         id="stop5593" />
    </linearGradient>
    <linearGradient
       id="linearGradient5589"
       osb:paint="solid">
      <stop
         style="stop-color:#333333;stop-opacity:1;"
         offset="0"
         id="stop5587" />
    </linearGradient>
    <linearGradient
       id="linearGradient5310-4"
       inkscape:collect="always">
      <stop
         style="stop-color:#1a1a1a;stop-opacity:0;"
         offset="0"
         id="stop5308" />
      <stop
         style="stop-color:#1a1a1a;stop-opacity:1;"
         offset="1"
         id="stop5306" />
    </linearGradient>
    <linearGradient
       id="linearGradient5224"
       osb:paint="solid">
      <stop
         style="stop-color:#1a1a1a;stop-opacity:1;"
         offset="0"
         id="stop5222" />
    </linearGradient>
    <filter
       inkscape:collect="always"
       style="color-interpolation-filters:sRGB"
       id="filter975"
       x="-2.9834548e-05"
       width="1.0000597"
       y="-3.556328e-05"
       height="1.000071"
       inkscape:label="filter">
      <feGaussianBlur
         inkscape:collect="always"
         stdDeviation="0.00059036365"
         id="feGaussianBlur977" />
    </filter>
    <linearGradient
       gradientTransform="translate(1.5006725,41.87102)"
       gradientUnits="userSpaceOnUse"
       y2="121.45651"
       x2="95.956757"
       y1="121.45651"
       x1="90.109818"
       id="linearGradient5731"
       xlink:href="#linearGradient5729"
       inkscape:collect="always" />
    <linearGradient
       gradientTransform="translate(1.5006715,41.871019)"
       gradientUnits="userSpaceOnUse"
       y2="121.62625"
       x2="95.525032"
       y1="121.62625"
       x1="87.804184"
       id="linearGradient5725"
       xlink:href="#linearGradient5729"
       inkscape:collect="always" />
    <filter
       inkscape:collect="always"
       style="color-interpolation-filters:sRGB"
       id="filter975-5"
       x="-0.0002962265"
       width="1.0005925"
       y="-7.8087338e-05"
       height="1.0001562"
       inkscape:label="filter">
      <feGaussianBlur
         inkscape:collect="always"
         stdDeviation="0.00059036366"
         id="feGaussianBlur977-9" />
    </filter>
    <linearGradient
       gradientTransform="matrix(3.7795276,0,0,3.7795276,-123.75965,-79.18572)"
       gradientUnits="userSpaceOnUse"
       y2="42.996445"
       x2="55.032806"
       y1="43.277077"
       x1="38.382549"
       id="linearGradient6434"
       xlink:href="#linearGradient6432"
       inkscape:collect="always" />
    <linearGradient
       id="linearGradient6432"
       inkscape:collect="always">
      <stop
         id="stop6428"
         offset="0"
         style="stop-color:#e6e6e6;stop-opacity:1;" />
      <stop
         id="stop6430"
         offset="1"
         style="stop-color:#e6e6e6;stop-opacity:0;" />
    </linearGradient>
    <linearGradient
       gradientTransform="translate(52.300671,104.31268)"
       gradientUnits="userSpaceOnUse"
       y2="41.108101"
       x2="39.856041"
       y1="41.108101"
       x1="35.100803"
       id="linearGradient7390"
       xlink:href="#linearGradient5310-4"
       inkscape:collect="always" />
    <radialGradient
       gradientUnits="userSpaceOnUse"
       gradientTransform="matrix(0.99995858,-0.00616586,0.02764184,4.4828641,-1.3515175,-316.20319)"
       r="2.3929532"
       fy="103.36003"
       fx="88.027939"
       cy="103.36003"
       cx="88.027939"
       id="radialGradient5299"
       xlink:href="#linearGradient5777"
       inkscape:collect="always" />
    <filter
       inkscape:label="filter"
       height="1.0001562"
       y="-7.8087338e-05"
       width="1.0005925"
       x="-0.0002962265"
       id="filter5256"
       style="color-interpolation-filters:sRGB"
       inkscape:collect="always">
      <feGaussianBlur
         id="feGaussianBlur5254"
         stdDeviation="0.00059036366"
         inkscape:collect="always" />
    </filter>
    <radialGradient
       gradientUnits="userSpaceOnUse"
       gradientTransform="matrix(1,0,0,0.84891886,-50.816536,-49.572906)"
       r="0.64073843"
       fy="85.177803"
       fx="94.933746"
       cy="85.177803"
       cx="94.933746"
       id="radialGradient5879"
       xlink:href="#linearGradient5310-4"
       inkscape:collect="always" />
    <radialGradient
       gradientUnits="userSpaceOnUse"
       gradientTransform="matrix(1,0,0,0.84891886,-50.816536,-49.572906)"
       r="0.64073843"
       fy="85.177803"
       fx="94.933746"
       cy="85.177803"
       cx="94.933746"
       id="radialGradient5871"
       xlink:href="#linearGradient5310-4"
       inkscape:collect="always" />
    <filter
       id="filter6209-7"
       inkscape:label="Blend"
       style="color-interpolation-filters:sRGB">
      <feBlend
         id="feBlend6207-4"
         result="blend"
         mode="lighten"
         in2="BackgroundImage" />
    </filter>
    <linearGradient
       gradientTransform="matrix(0.26458333,0,0,0.26458333,52.300672,104.32922)"
       gradientUnits="userSpaceOnUse"
       y2="90.425621"
       x2="199.31731"
       y1="93.563408"
       x1="151.42831"
       id="linearGradient3000"
       xlink:href="#linearGradient5310-4"
       inkscape:collect="always" />
    <linearGradient
       gradientTransform="matrix(0.26458333,0,0,0.26458333,52.300672,104.32922)"
       gradientUnits="userSpaceOnUse"
       y2="89.718513"
       x2="182.74449"
       y1="90.027878"
       x1="209.85301"
       id="linearGradient2992"
       xlink:href="#linearGradient5310-4"
       inkscape:collect="always" />
  </defs>
  <sodipodi:namedview
     inkscape:window-maximized="1"
     inkscape:window-y="-6"
     inkscape:window-x="-6"
     inkscape:window-height="658"
     inkscape:window-width="1280"
     showgrid="false"
     inkscape:document-rotation="0"
     inkscape:current-layer="layer2"
     inkscape:document-units="mm"
     inkscape:cy="98.366373"
     inkscape:cx="157.80015"
     inkscape:zoom="1"
     inkscape:pageshadow="2"
     inkscape:pageopacity="0.0"
     borderopacity="1.0"
     bordercolor="#666666"
     pagecolor="#ffffff"
     id="base"
     inkscape:snap-global="false"
     showguides="false" />
  <metadata
     id="metadata3237">
    <rdf:RDF>
      <cc:Work
         rdf:about="">
        <dc:format>image/svg+xml</dc:format>
        <dc:type
           rdf:resource="http://purl.org/dc/dcmitype/StillImage" />
        <dc:title />
      </cc:Work>
    </rdf:RDF>
  </metadata>
  <g
     transform="translate(-85.045414,-125.26387)"
     inkscape:groupmode="layer"
     id="layer7"
     inkscape:label="backB" />
  <g
     transform="translate(-85.045414,-125.26387)"
     inkscape:groupmode="layer"
     id="layer3"
     inkscape:label="backA" />
  <g
     transform="translate(-85.045414,-125.26387)"
     inkscape:groupmode="layer"
     id="layer2"
     inkscape:label="center"
     style="display:inline" />
  <g
     transform="translate(-85.045414,-125.26387)"
     id="layer1"
     inkscape:groupmode="layer"
     inkscape:label="frontB"
     style="mix-blend-mode:normal;filter:url(#filter975)" />
  <g
     transform="translate(-85.045414,-125.26387)"
     inkscape:groupmode="layer"
     id="layer5"
     inkscape:label="frontA" />
  <g
     transform="translate(-85.045414,-125.26387)"
     inkscape:groupmode="layer"
     id="layer4"
     inkscape:label="mask">
    <path
       sodipodi:nodetypes="csccccssc"
       inkscape:export-ydpi="96"
       inkscape:export-xdpi="96"
       style="display:inline;opacity:1;fill:url(#linearGradient5731);fill-opacity:1;stroke:#000000;stroke-width:0.131097;stroke-linecap:butt;stroke-linejoin:miter;stroke-miterlimit:4;stroke-dasharray:none;stroke-opacity:1"
       d="m 91.679036,162.17448 c -0.0288,0.43923 0.161006,1.03523 0.36648,1.42047 0.03672,0.0688 0.07419,0.36031 0.286084,0.4697 0.543226,0.11694 1.227079,0.19101 1.849913,0.31087 1.633403,0.12507 1.471084,-0.0582 1.932057,-0.0513 1.18368,0.0184 1.401854,-0.41992 1.223397,-0.72857 -0.155663,-0.0685 -0.383935,-0.33155 -0.68044,-0.37766 -0.596935,-0.0928 -1.400045,0.0535 -1.951303,-0.0441 -0.892404,-0.15814 -1.543827,-0.35969 -1.510324,-0.96863"
       id="path1323-3-5-6-8-3" />
    <path
       id="path1323-3-5-5-7"
       d="m 89.356222,161.89709 c -0.211872,0.37046 0.325776,1.32383 0.407995,1.57361 0.05996,0.1816 0.325349,0.98017 0.862072,1.10305 0.402637,0.0923 1.428721,0.41272 1.6964,0.45239 1.250982,0.18605 3.001017,-0.0519 3.620868,-0.0417 1.591659,0.0274 1.079106,-0.62462 0.622162,-1.11838 -0.278511,-0.30094 -0.612324,-0.21226 -0.970116,-0.22981 -0.708302,-0.0347 -1.510568,0.0565 -2.163764,-0.3191 -0.628593,-0.39866 -1.032476,-0.69335 -0.949919,-1.05359"
       style="display:inline;opacity:1;mix-blend-mode:normal;fill:url(#linearGradient5725);fill-opacity:1;fill-rule:nonzero;stroke:#1a1a1a;stroke-width:0.185;stroke-linecap:round;stroke-linejoin:round;stroke-miterlimit:4;stroke-dasharray:none;stroke-opacity:1;filter:url(#filter975-5)"
       inkscape:export-xdpi="96"
       inkscape:export-ydpi="96"
       sodipodi:nodetypes="cccccsscc" />
    <path
       d="m 95.576583,125.33207 c -0.598572,0.006 -1.269487,0.21715 -1.979723,0.79582 0,0 -1.207974,1.27107 -1.400432,2.24741 -0.178448,0.90526 -0.53671,1.83233 -1.075904,2.60242 -0.0052,0.0814 -0.07598,0.12937 -0.112655,0.18707 -0.03982,0.0545 -0.06851,0.10911 -0.0925,0.15193 -0.540726,0.96532 -1.191506,1.86718 -1.9451,2.65152 -1.782794,2.46665 -2.519624,4.96066 -2.832386,7.4104 -0.943356,7.38892 -0.826124,9.94883 -0.110069,14.08079 0.352772,1.38971 -0.365829,2.87727 -0.681096,4.07624 -0.08515,1.09322 -0.637312,2.74258 0.333312,3.37447 1.319064,-0.057 2.429089,-0.37188 3.599264,-1.01234 0,0 0.220949,-0.0459 0.534334,0.0227 0.249905,0.0547 0.612471,0.11941 0.989603,0.17466 1.5034,0.2203 3.730527,0.29363 4.722709,-0.98805 3.012535,-4.37916 4.85149,-21.53027 2.915068,-26.4604 -0.195525,-0.36096 -0.401381,-0.95243 -0.49816,-1.63659 -0.0444,-0.31388 -0.06475,-0.64742 -0.05168,-0.98702 0.0521,-0.86662 0.344649,-1.75813 1.048515,-2.46807 l -0.0041,-2.70939 c -0.422918,-0.12025 -0.845241,-0.2845 -0.97464,-0.39068 -0.130506,-0.068 -0.933943,-1.13795 -2.384351,-1.12293 z"
       style="display:inline;opacity:0.76;fill:#333833;fill-opacity:1;stroke:#000000;stroke-width:0.136;stroke-linecap:butt;stroke-linejoin:miter;stroke-miterlimit:4;stroke-dasharray:none;stroke-opacity:1"
       id="path971" />
    <path
       transform="matrix(0.26458333,0,0,0.26458333,85.045412,125.26391)"
       style="display:inline;opacity:1;mix-blend-mode:normal;fill:url(#linearGradient6434);fill-opacity:1;stroke:#000000;stroke-width:0.514333;stroke-linecap:butt;stroke-linejoin:miter;stroke-miterlimit:4;stroke-dasharray:none;stroke-opacity:1;filter:url(#filter975)"
       d="M 39.469337,135.27453 C 50.77763,118.83193 58.334286,55.209988 51.065453,36.698644 50.832105,35.928033 50.596141,35.708321 50.28368,34.891282 c -0.561925,-1.469341 -1.012853,-2.91899 -1.367834,-4.183 l -0.33067,-1.196081 c -0.125481,0.01739 0.02986,-0.196837 -0.0963,-0.198727 -0.376743,-0.0064 -1.099302,0.272315 -1.47411,0.319937 -0.810973,0.102803 -1.603136,0.521771 -2.314564,0.835457 -1.379342,0.608183 -2.496234,1.754714 -3.410079,2.935317 -4.936505,6.377514 -4.702095,20.097759 -8.949089,27.87391 -5.383284,9.131305 -7.346125,28.090965 -7.827088,44.504995 -0.130281,4.44594 -1.254017,8.29599 -1.408407,12.18407 -0.154281,3.87847 -0.764981,10.17142 -1.424138,14.39017 -0.144907,1.26705 -0.171175,3.54157 0.02986,5.06045 0.105864,0.8008 0.05594,1.21591 0.01512,1.52908 5.65968,0.86434 14.02018,1.14025 17.744613,-3.67215 z"
       id="path4695-9-6-7"
       sodipodi:nodetypes="ccsccsssscscccccc" />
    <ellipse
       transform="matrix(0.26458333,0,0,0.26458333,85.045412,125.26391)"
       ry="1.8825452"
       rx="1.9343219"
       cy="6.7795305"
       cx="42.628262"
       id="path6612"
       style="opacity:0.759615;mix-blend-mode:normal;fill:#f2f2f2;fill-opacity:1;fill-rule:nonzero;stroke:#000000;stroke-width:0.719656;stroke-linecap:square;stroke-linejoin:round;stroke-miterlimit:4;stroke-dasharray:none;stroke-dashoffset:0;stroke-opacity:0.200803;paint-order:markers fill stroke;filter:url(#filter975)" />
    <path
       style="display:inline;mix-blend-mode:overlay;fill:url(#linearGradient7390);fill-opacity:1;stroke:url(#radialGradient5299);stroke-width:0.136;stroke-linecap:butt;stroke-linejoin:miter;stroke-miterlimit:4;stroke-dasharray:none;stroke-opacity:1;filter:url(#filter5256)"
       d="m 88.36509,138.71117 c -0.37627,1.02137 -0.264978,1.42344 -0.48475,3.15086 -0.133447,1.04903 -0.441234,3.05551 -0.462697,4.00528 -0.05411,2.39505 0.04238,5.32208 0.25937,6.64868 0.07062,0.43159 0.305209,0.74436 0.556146,0.95557 0.307435,0.25874 0.639357,0.36501 0.724156,0.35045 0.583234,-0.1002 1.41978,-2.78699 1.929359,-6.94537 0.136326,-1.11246 0.409925,-2.70597 0.613977,-3.78074 0.289579,-1.52532 0.69637,-3.87655 0.651194,-5.80969 -0.838812,-0.8004 -3.389079,0.34548 -3.786755,1.42496 z"
       id="path2640-1-1"
       inkscape:transform-center-x="-1.1862351"
       inkscape:transform-center-y="6.0298517"
       sodipodi:nodetypes="scccccsccs" />
    <path
       sodipodi:nodetypes="sss"
       id="path3209-6-3"
       d="m 43.626651,22.507268 c -0.455921,1.058609 1.123561,0.708168 1.061542,0.3377 -0.103592,-0.618749 -0.874042,-0.773064 -1.061542,-0.3377 z"
       style="display:inline;fill:url(#radialGradient5879);fill-opacity:1;stroke:url(#radialGradient5871);stroke-width:0.136085;stroke-linecap:butt;stroke-linejoin:miter;stroke-miterlimit:4;stroke-dasharray:none;stroke-opacity:0.200803;filter:url(#filter6209-7)"
       transform="matrix(1.180472,0,0,1.2758029,44.293321,98.071035)" />
    <path
       sodipodi:nodetypes="ccccsccc"
       d="m 98.93555,126.86221 0.0041,2.7094 c 0.631532,-0.63698 1.5884,-1.12927 3.03444,-1.30586 0.96582,-0.1181 1.57496,-0.24517 2.91145,-0.28784 -0.59285,-0.64068 -1.19859,-0.76897 -1.78019,-0.84095 -0.54803,-0.0678 -1.04982,-0.0132 -1.524,-0.0489 -0.93539,-0.0705 -1.41838,-0.0461 -1.920814,-0.0584 -0.257087,-0.032 -0.510821,-0.10599 -0.724987,-0.16744 z"
       style="display:inline;opacity:1;fill:url(#linearGradient3000);fill-opacity:1;stroke:url(#linearGradient2992);stroke-width:0.136;stroke-linecap:butt;stroke-linejoin:miter;stroke-miterlimit:4;stroke-dasharray:none;stroke-opacity:1"
       id="path5797" />
    <path
       d="m 98.996834,127.96186 c 0,0 0.826566,-0.12195 1.242176,-0.16255 0.57637,-0.0563 1.7337,-0.11223 1.7337,-0.11223 m -2.97308,0.20659 c 1.29255,-0.22206 2.62158,-0.23656 3.90312,-0.16149 0.28247,0.0165 0.55513,0.0136 0.82701,0.0452 0.32264,0.0375 0.6442,0.10925 0.9798,0.11808 m -5.706199,-0.0407 c 0,0 0.586283,-0.0687 0.880378,-0.093 0.503851,-0.0415 1.008611,-0.077 1.514001,-0.0897 0.51819,-0.013 1.03702,-0.006 1.555,0.0137 0.31116,0.0117 0.62331,0.0218 0.93207,0.0622 0.28184,0.0368 0.83684,0.16374 0.83684,0.16374"
       style="fill:none;stroke:#000000;stroke-width:0.1;stroke-linecap:butt;stroke-linejoin:miter;stroke-miterlimit:4;stroke-dasharray:none;stroke-opacity:1"
       id="path3018" />
  </g>
</svg>
